<svg width="444" height="105" viewBox="0 0 444 105" fill="none" xmlns="http://www.w3.org/2000/svg">
<path d="M211.687 63.1113C211.849 72.691 206.028 82.3798 192.822 82.3798C188.187 82.3798 182.635 82.3798 178 82.3798V44.4927C182.635 44.4927 188.187 44.4927 192.822 44.4927C205.759 44.4927 211.526 53.7479 211.687 63.1113ZM185.061 75.5063H192.822C201.393 75.5063 204.788 69.228 204.627 63.0578C204.465 57.1584 201.015 51.2591 192.822 51.2591H185.061V75.5063Z" fill="black"/>
<path d="M222.414 82.3798V44.4927H229.475V82.3798H222.414Z" fill="black"/>
<path d="M269.575 53.7467C267.042 51.3114 263.269 49.9583 259.981 49.9583C251.896 49.9583 246.991 56.1285 246.991 63.9226C246.991 70.1463 250.603 76.5873 259.981 76.5873C262.946 76.5873 265.533 75.9376 268.498 73.5568V66.845H258.85V60.4586H275.02V76.4247C271.3 80.7001 266.612 83.2446 259.981 83.2446C245.805 83.2446 240.037 73.8812 240.037 63.9226C240.037 53.2597 246.667 43.4092 259.981 43.4092C265.048 43.4092 270.115 45.3575 273.995 49.2004L269.575 53.7467Z" fill="black"/>
<path d="M286.285 82.3798V44.4927H293.346V82.3798H286.285Z" fill="black"/>
<path d="M336.143 82.3798H333.232V65.1677H309.193V82.3798H306.281V44.4927H309.192V62.5162H333.231V44.4927H336.142V82.3798H336.143Z" fill="#38B6FF"/>
<path d="M352.744 82.3798H349.887V44.4927H352.744V82.3798Z" fill="#38B6FF"/>
<path d="M383.253 67.8739L396.567 82.3788H392.74L379.696 68.0366H369.401V82.3798H366.49V44.4927H383.092C386.972 44.4927 389.999 45.6568 392.174 47.984C394.348 50.3112 395.453 53.081 395.489 56.2924C395.524 59.5766 394.474 62.3272 392.336 64.5463C390.197 66.7644 387.17 67.8739 383.253 67.8739ZM369.401 47.1988V65.2758H382.768C385.93 65.2758 388.301 64.4644 389.883 62.8406C391.464 61.2167 392.272 59.0167 392.308 56.2378C392.343 53.8207 391.553 51.7097 389.936 49.905C388.319 48.1012 386.037 47.1988 383.091 47.1988H369.401Z" fill="#38B6FF"/>
<path d="M424.214 43.8955C430.252 43.8955 434.941 45.7993 438.282 49.6059C441.624 53.4135 443.277 58.0406 443.241 63.4883C443.241 66.0146 442.828 68.4328 442.002 70.7408C441.174 73.0508 439.998 75.1244 438.471 76.9655C436.944 78.8057 434.949 80.276 432.489 81.3764C430.027 82.4768 427.269 83.0266 424.214 83.0266C421.16 83.0266 418.402 82.4758 415.94 81.3764C413.479 80.276 411.475 78.7966 409.93 76.9382C408.385 75.0799 407.208 72.9962 406.4 70.6872C405.592 68.3782 405.188 65.9429 405.188 63.3802C405.188 59.8808 405.87 56.6876 407.235 53.8006C408.601 50.9146 410.757 48.5419 413.703 46.6835C416.651 44.8242 420.154 43.8955 424.214 43.8955ZM424.214 46.6017C419.04 46.6017 415.043 48.2175 412.222 51.4461C409.4 54.6756 408.008 58.6722 408.045 63.4348C408.08 68.0538 409.518 72.0231 412.357 75.3416C415.195 78.6622 419.149 80.3214 424.214 80.3214C427.664 80.3214 430.646 79.4918 433.162 77.8315C435.677 76.1723 437.518 74.0967 438.687 71.6068C439.854 69.1169 440.439 66.3935 440.439 63.4337C440.439 58.744 439.019 54.7656 436.181 51.4996C433.342 48.2346 429.353 46.6017 424.214 46.6017Z" fill="#38B6FF"/>
<path d="M74.0091 1.28236C79.8052 -0.465283 85.9074 0.107901 91.8661 0.0316111C91.9042 17.478 91.8761 34.9344 91.8851 52.3898C77.2555 52.4661 62.6359 52.4088 48.0062 52.4279C48.1397 44.4164 47.3377 36.3086 48.722 28.3734C51.2245 15.5677 61.4042 4.66222 74.0091 1.28236Z" fill="#26D0FF"/>
<path d="M48.0059 52.4278C62.6355 52.4087 77.2551 52.4659 91.8848 52.3896C91.4832 62.1869 93.1837 72.4048 89.5549 81.7825C85.63 92.3155 76.444 100.68 65.5767 103.545C59.876 105.168 53.8983 104.796 48.044 104.825C48.1494 87.3586 48.2357 69.8932 48.0059 52.4278Z" fill="#38B6FF"/>
<path d="M145.453 65.4844L145.454 65.4834V52.2852H145.375C130.775 52.2852 116.174 52.3042 101.573 52.2852C101.554 69.7887 101.563 87.3023 101.563 104.806C107.54 104.768 113.652 105.227 119.458 103.479C130.268 100.548 139.348 92.1247 143.197 81.6207C145.19 76.425 145.494 70.9762 145.453 65.4844Z" fill="#38B6FF"/>
<path d="M101.564 39.6725L101.563 39.6735V52.8717H101.641C116.242 52.8717 130.843 52.8527 145.444 52.8717C145.463 35.3682 145.454 17.8545 145.454 0.350944C139.476 0.389089 133.365 -0.0696344 127.559 1.67801C116.749 4.60916 107.668 13.0322 103.82 23.5362C101.826 28.7329 101.522 34.1816 101.564 39.6725Z" fill="#26D0FF"/>
<path d="M48.0057 52.428C41.5029 52.3035 34.7994 51.903 28.5637 54.1084C16.5601 57.9189 7.1071 68.6327 4.77624 80.9987C4.76921 81.0459 4.76219 81.0931 4.75516 81.1392C4.72003 81.3219 4.6889 81.5106 4.66782 81.7124C4.66782 81.7134 4.66782 81.7144 4.66782 81.7154C4.23015 84.768 4.10769 87.8387 4.09766 90.9174C3.86678 98.3547 4.11773 104.823 4.11773 104.823C18.7664 104.9 33.4051 104.91 48.0438 104.823C48.1492 87.3589 48.2355 69.8935 48.0057 52.428Z" fill="#80FDFF"/>
</svg>
