<svg width="294" height="184" viewBox="0 0 294 184" fill="none" xmlns="http://www.w3.org/2000/svg">
<g clip-path="url(#clip0_714_3825)">
<path d="M45.1488 14.1812C89.4288 -2.29695 134.434 12.271 164.956 44.0015C195.479 75.7321 259.536 22.1009 293.509 53.7798C316.695 75.3989 306.073 130.982 274.284 155.058C231.073 187.779 70.0965 188.759 43.3875 177.532C-2.25447 158.344 43.0955 122.81 21.7907 88.748C-3.34336 48.5623 25.5812 21.4613 45.1488 14.1812Z" fill="#E7F3FE"/>
<path d="M290.119 168.071C267.954 166.985 192.553 168.824 169.621 169.542C146.688 170.26 120.07 168.595 106.244 166.149C92.4185 163.702 12.4899 166.357 16.1198 172.936C19.7498 179.514 51.7299 175.879 87.9977 178.523C124.265 181.166 205.839 178.192 224.239 178.523C242.64 178.853 259.512 177.861 283.224 176.543C306.936 175.224 302.967 168.7 290.119 168.071Z" fill="#CCE2FF"/>
<path opacity="0.5" d="M179.363 23.2642C179.452 22.4701 179.497 21.6718 179.497 20.8728C179.497 20.4423 179.483 20.0223 179.459 19.6022L175.516 18.3238C175.278 16.687 174.808 15.0927 174.121 13.5892L176.735 10.3654C176.132 9.3019 175.439 8.29243 174.664 7.34812L170.722 8.63938C169.568 7.45811 168.254 6.44557 166.819 5.63161L167.043 1.47978C165.933 0.973158 164.781 0.563876 163.601 0.25653L161.168 3.62241C159.542 3.34696 157.885 3.30319 156.246 3.49242L153.992 0C152.797 0.24252 151.626 0.588142 150.49 1.03301L150.495 5.19172C149.019 5.92783 147.653 6.86943 146.439 7.98859L142.575 6.49331C141.751 7.39494 141.006 8.36612 140.348 9.39606L142.789 12.7533C142.022 14.218 141.468 15.7851 141.143 17.407L137.134 18.4848C137.045 19.2788 137 20.0772 137 20.8762C137 21.3066 137.014 21.7259 137.039 22.1468L140.98 23.4251C141.219 25.0618 141.689 26.656 142.376 28.1598L139.763 31.3845C140.365 32.4478 141.058 33.4573 141.833 34.4017L145.776 33.1104C146.929 34.2921 148.243 35.3044 149.679 36.1174L149.455 40.27C150.564 40.7768 151.716 41.1858 152.896 41.4924L155.328 38.1231C156.955 38.399 158.612 38.4425 160.25 38.2522L162.504 41.7447C163.699 41.5013 164.87 41.1542 166.005 40.7073L166 36.5495C167.477 35.8136 168.843 34.8717 170.057 33.7518L173.921 35.2479C174.747 34.3459 175.495 33.3744 176.155 32.3443L173.714 28.987C174.481 27.5221 175.035 25.9551 175.36 24.3333L179.363 23.2642ZM158.248 29.2272C156.601 29.2263 154.991 28.7359 153.621 27.8179C152.252 26.8998 151.185 25.5954 150.555 24.0695C149.926 22.5437 149.761 20.8649 150.083 19.2454C150.405 17.6259 151.199 16.1385 152.364 14.9711C153.529 13.8037 155.013 13.0089 156.629 12.6871C158.245 12.3652 159.919 12.5308 161.441 13.163C162.963 13.7951 164.264 14.8653 165.179 16.2384C166.094 17.6115 166.582 19.2257 166.582 20.8771C166.582 21.974 166.367 23.0602 165.948 24.0735C165.529 25.0869 164.915 26.0076 164.141 26.783C163.367 27.5585 162.448 28.1734 161.437 28.5928C160.426 29.0122 159.342 29.2278 158.248 29.2272V29.2272Z" fill="#9EC8FF"/>
<path d="M157.429 30.5201C157.348 30.5201 157.268 30.4968 157.199 30.4529C157.13 30.409 157.075 30.3463 157.041 30.2722C157.006 30.1982 156.993 30.1158 157.004 30.0346C157.014 29.9535 157.047 29.8771 157.099 29.8142C158.63 27.9644 159.66 25.7512 160.092 23.3872C160.523 21.0231 160.341 18.5876 159.562 16.3146C159.525 16.2066 159.533 16.0883 159.583 15.9857C159.633 15.8831 159.721 15.8046 159.829 15.7675C159.937 15.7304 160.055 15.7377 160.157 15.7878C160.259 15.838 160.338 15.9268 160.375 16.0348C161.201 18.4478 161.394 21.0332 160.937 23.5427C160.479 26.0523 159.385 28.4016 157.76 30.3652C157.719 30.4138 157.669 30.4528 157.612 30.4796C157.555 30.5064 157.492 30.5202 157.429 30.5201V30.5201Z" fill="white"/>
<path d="M161.387 10.8008C161.277 10.8008 161.172 10.7589 161.092 10.6837C159.71 9.37451 158.075 8.36418 156.287 7.71552C156.234 7.6967 156.184 7.6674 156.142 7.62934C156.1 7.59128 156.066 7.5452 156.041 7.49377C156.017 7.44234 156.003 7.38659 156 7.32973C155.998 7.27288 156.006 7.21605 156.026 7.16254C156.045 7.10904 156.075 7.05991 156.113 7.01801C156.152 6.97611 156.198 6.94227 156.25 6.91844C156.301 6.89461 156.357 6.88127 156.414 6.87919C156.47 6.87712 156.527 6.88634 156.58 6.90633C158.478 7.59494 160.214 8.66737 161.681 10.057C161.744 10.1161 161.787 10.1928 161.806 10.2769C161.825 10.3611 161.818 10.449 161.786 10.5292C161.754 10.6093 161.699 10.6781 161.628 10.7265C161.557 10.7749 161.473 10.8008 161.387 10.8008V10.8008Z" fill="white"/>
<path d="M156.43 7.31854C156.325 7.31863 156.224 7.2803 156.145 7.21076C156.067 7.14123 156.016 7.04529 156.003 6.94103C155.99 6.83677 156.016 6.73138 156.075 6.64473C156.134 6.55808 156.223 6.49615 156.325 6.47061C157.514 6.17038 158.736 6.01887 159.962 6.01953C160.076 6.01953 160.185 6.06488 160.265 6.1456C160.346 6.22632 160.391 6.3358 160.391 6.44995C160.391 6.56411 160.346 6.67359 160.265 6.75431C160.185 6.83502 160.076 6.88037 159.962 6.88037C158.806 6.87989 157.655 7.02244 156.535 7.30477C156.5 7.31394 156.465 7.31857 156.43 7.31854Z" fill="white"/>
<path opacity="0.5" d="M224.802 0.0605469H92V80.0221H224.802V0.0605469Z" fill="#9EC8FF"/>
<path d="M220.942 2.01172H96V75.418H220.942V2.01172Z" fill="white"/>
<path d="M150.641 39.9487C156.595 34.2672 166.772 34.3963 166.557 43.0477C166.342 51.6991 167.054 52.5126 169.505 57.0501C178.007 72.7974 159.372 71.8712 151.6 72.3877C143.828 72.9042 144.472 58.2269 145.846 50.092C147.22 41.957 148.898 41.6118 150.641 39.9487Z" fill="#303C60"/>
<path d="M156.696 89.5547C154.787 105.624 151.319 117.503 150.932 125.121C150.546 132.74 149 162.735 149 162.735C149 162.735 153.251 162.437 153.637 161.788C154.024 161.139 161.624 144.227 161.237 133.768C160.851 123.31 168.828 107.41 168.828 107.41L166.904 91.8075L156.696 89.5547Z" fill="#4476BD"/>
<path d="M157.487 96.5488L154.502 97.8014C153.691 102.897 152.79 107.478 152 111.542C156.751 114.62 159.204 124.878 160.256 131.149C160.792 124.132 164.095 115.654 166.144 110.964L157.487 96.5488Z" fill="#3E6BAB"/>
<path d="M161.735 87.9336C161.735 87.9336 168.169 96.1606 167.967 105.495C167.66 119.699 166.114 123.759 168.804 138.657C169.854 144.475 166.485 163.509 166.485 163.509C166.485 163.509 163.608 163.735 162.062 162.963C162.191 161.565 160.202 138.815 156.329 128.358C154.453 123.293 151.817 109.11 150.403 100.975C148.99 92.8404 148.729 91.1617 149.244 91.1617C149.759 91.1617 161.735 87.9336 161.735 87.9336Z" fill="#4476BD"/>
<path d="M162.304 65.0859C162.304 65.0859 162.59 60.829 162.132 59.5145C161.674 58.2 157.723 57.0508 157.723 57.0508C157.723 57.0508 157.551 63.1343 157.952 63.8798C158.353 64.6253 160.7 66.7499 160.7 66.7499L162.304 65.0859Z" fill="#F09959"/>
<path d="M170.998 61.9844C161.954 71.7437 159.002 75.8499 158.315 75.8499C156.168 72.051 149.04 64.0168 149.04 64.0168L146 65.9761C146 65.9761 153.026 84.3782 157.492 84.5702C161.957 84.7622 171.034 78.2241 171.146 77.4734C171.259 76.7228 170.998 61.9844 170.998 61.9844Z" fill="#A2DFF2"/>
<path d="M154 83.6147C158.425 81.8069 163.494 78.0313 163.58 77.4717C163.695 76.7211 163.433 61.9844 163.433 61.9844C161.458 64.1124 159.741 65.9993 158.247 67.6496C156.627 73.6978 156.733 80.2841 154 83.6147Z" fill="#96CFE0"/>
<path d="M160.076 55.5586C160.076 55.5586 168.732 59.9076 170.621 67.6103C172.51 75.3131 166.92 84.8194 166.233 89.8949C165.546 94.9704 149.745 95.8631 149.745 90.4303C149.745 85.2214 145.786 74.1656 146.009 71.349C146.534 64.7412 156.169 56.6467 156.169 56.6467L160.076 55.5586Z" fill="#A2DFF2"/>
<path d="M160.042 45.5859L163.758 57.0712C163.758 57.0712 159.79 60.141 153 67.5244C153.264 62.6107 157.37 57.2555 157.37 57.2555L154.559 46.4089L160.042 45.5859Z" fill="#F09959"/>
<path d="M162.215 50.9429L160.482 45.5859L155 46.4089L157.811 57.2555C157.811 57.2555 157.536 57.6936 157.131 58.3832C159.779 56.4127 161.404 53.961 162.215 50.9429Z" fill="#E38540"/>
<path d="M163.446 48.1793C162.444 51.8344 158.563 53.8471 155.803 53.0861C153.043 52.3251 152.454 49.0823 153.458 45.4246C154.462 41.7669 157.509 39.422 160.266 40.1821C163.023 40.9422 164.448 44.5242 163.446 48.1793Z" fill="#F09959"/>
<path d="M149.263 85.2758C150.466 92.9192 146 109.271 146 109.271C146 109.271 148.662 109.873 156.649 109.099C164.635 108.324 168.156 100.334 169.358 100.111C170.56 99.8877 171.178 107.547 171.77 108.152C172.363 108.757 172.457 98.4802 170.904 94.4394C168.156 87.2781 168.693 84.2402 169.721 79.9016C171.545 72.1902 149.263 85.2758 149.263 85.2758Z" fill="#A2DFF2"/>
<path d="M160.678 158.975C161.398 161.901 159.977 164.226 158.077 165.922C156.531 167.299 151.78 167.884 152.008 168.573C152.236 169.262 157.847 169.479 159.737 169.193C161.626 168.906 162.141 167.988 164.493 167.988C166.038 167.988 166.321 166.732 165.634 165.179C164.947 163.626 164.706 162.768 165.327 161.374C165.948 159.979 160.678 158.975 160.678 158.975Z" fill="#4476BD"/>
<path d="M159.157 158.974C159.042 162.016 158.69 164.281 159.434 165.689C162.309 168.099 164.698 170.837 163.786 171.026C159.434 171.927 157.774 169.313 155.312 168.57C152.291 167.657 155.598 163.853 154.415 158.972C153.756 156.257 158.977 156.906 158.977 156.906L159.157 158.974Z" fill="#4476BD"/>
<path d="M168.341 96.938C168.17 95.9842 167.953 95.1251 167.692 94.4416C164.944 87.2802 165.482 84.2423 166.509 79.9037C166.585 79.6092 166.621 79.3057 166.615 79.0016C166.847 78.2268 167.064 77.4443 167.253 76.6549L166.321 68.2187L159.596 60.2129C154.556 67.6161 157.957 76.8271 157.201 81.906C156.444 86.985 148 93.4611 148 93.4611L148.275 95.2628C148.455 96.4512 149.095 97.5207 150.055 98.2402C151.016 98.9598 152.22 99.2715 153.408 99.1082C156.889 98.6235 161.455 97.6508 163.487 95.7604C165.45 93.9268 167.191 95.342 168.341 96.938Z" fill="#96CFE0"/>
<path d="M161.369 93.166C161.369 93.166 157.641 94.2119 157.195 94.4452C156.75 94.6785 156.503 95.9147 156.503 95.9147C156.503 95.9147 154.369 97.7724 155.187 98.43C156.004 99.0877 157.464 100.754 159.394 99.9796C160.579 99.5044 161.498 95.1408 162.274 95.1055C163.05 95.0702 161.369 93.166 161.369 93.166Z" fill="#F09959"/>
<path d="M158.456 59.2308C162.446 59.3444 166.064 66.5479 167.324 72.7976C168.585 79.0473 169.912 87.9329 169.912 87.9329C169.912 87.9329 163.299 93.1642 156.766 94.693C151.065 96.0273 148.156 96.5481 148.156 96.5481L147 93.2907L160.637 85.2617C160.637 85.2617 155.623 75.7925 155.124 68.6475C154.625 61.5025 155.424 59.1447 158.456 59.2308Z" fill="#A2DFF2"/>
<path d="M158.784 55.6022L148.838 57.6035L150.106 63.9352L160.052 61.9339L158.784 55.6022Z" fill="#F5DC95"/>
<path d="M159.911 64.5699C160.048 61.9512 158.754 58.3796 158.01 58.3848C157.267 58.3899 158.239 60.7254 157.838 62.2749C157.621 63.1142 159.911 64.5699 159.911 64.5699Z" fill="#F09959"/>
<path d="M148 41.327C148.222 48.5012 156.58 47.9511 158.87 47.5087C161.16 47.0662 156.078 62.6465 160.441 63.5418C163.644 64.202 162.923 59.179 166.481 59.5148C168.055 59.6628 169.637 62.1024 169.637 62.1024C169.637 62.1024 169.401 60.6003 168.199 59.5148C166.997 58.4292 163.844 51.7724 163.015 47.0085C162.187 42.2446 156.575 39.1645 154.916 39.0698C153.258 38.9752 149.191 40.8673 149.191 40.8673L148 41.327Z" fill="#303C60"/>
<path d="M157.478 65.1639C157.363 65.1637 157.248 65.1513 157.135 65.1269C155.738 64.8291 155.062 63.3579 155.004 60.4982C154.954 58.0465 155.359 54.9027 155.787 51.5696C155.958 50.2232 156.139 48.8321 156.286 47.484C156.296 47.4314 156.324 47.3844 156.367 47.3524C156.41 47.3204 156.463 47.3059 156.516 47.3118C156.569 47.3178 156.617 47.3437 156.652 47.3843C156.687 47.4249 156.704 47.4772 156.702 47.5305C156.554 48.8812 156.375 50.2749 156.202 51.6229C155.373 58.068 154.591 64.1559 157.221 64.7171C157.302 64.7342 157.384 64.7429 157.466 64.743C158.977 64.743 160.337 61.792 161.13 58.9177C161.146 58.8665 161.182 58.8238 161.23 58.7983C161.277 58.7728 161.332 58.7666 161.384 58.7808C161.436 58.7951 161.48 58.8288 161.508 58.8749C161.536 58.921 161.545 58.9761 161.533 59.0287C161.009 60.9234 159.602 65.1639 157.478 65.1639Z" fill="#303C60"/>
<path d="M156.507 66.8324C156.274 66.8332 156.043 66.7845 155.83 66.6896C155.617 66.5946 155.426 66.4555 155.27 66.2814C152.421 63.2616 155.238 48.1126 155.356 47.4695C155.369 47.4171 155.401 47.3716 155.446 47.3423C155.491 47.313 155.546 47.3023 155.599 47.3122C155.651 47.3222 155.698 47.3521 155.73 47.3958C155.761 47.4395 155.775 47.4936 155.767 47.547C155.738 47.7028 152.867 63.1282 155.571 65.993C155.711 66.1516 155.889 66.272 156.088 66.3431C156.287 66.4141 156.5 66.4335 156.709 66.3994C158.188 66.2031 159.042 64.1904 159.8 62.4154C160.531 60.6937 161.219 59.0659 162.443 59.1089C162.499 59.1109 162.551 59.1349 162.589 59.1756C162.627 59.2162 162.647 59.2703 162.645 59.3258C162.645 59.3535 162.639 59.3808 162.627 59.406C162.616 59.4313 162.6 59.454 162.58 59.4729C162.56 59.4918 162.536 59.5064 162.51 59.5159C162.484 59.5254 162.456 59.5295 162.429 59.5281H162.399C161.481 59.5281 160.853 61.0114 160.185 62.5798C159.388 64.459 158.484 66.5887 156.767 66.816C156.681 66.827 156.594 66.8324 156.507 66.8324V66.8324Z" fill="#303C60"/>
<path d="M159.452 48.886C158.863 49.647 157.94 49.919 157.391 49.4886C156.842 49.0582 156.876 48.0983 157.463 47.3365C158.05 46.5746 158.974 46.3035 159.524 46.7339C160.074 47.1643 160.04 48.125 159.452 48.886Z" fill="#F09959"/>
<path d="M126.122 75.4501C128.162 79.5408 126.473 84.2513 122.459 85.9153C118.423 87.5905 114.002 86.6393 111.961 82.5486C109.921 78.4579 111.436 73.5537 115.347 71.5936C119.257 69.6334 124.08 71.3603 126.122 75.4501Z" fill="#303C60"/>
<path d="M115.121 86.4047C114.671 86.4047 113.783 86.2446 112.655 85.2408C111.728 84.4179 111.064 83.155 110.783 81.6856C110.427 79.8305 110.659 77.699 111.47 75.3481C111.479 75.3221 111.493 75.2981 111.511 75.2775C111.529 75.2569 111.551 75.2401 111.576 75.2281C111.601 75.2161 111.627 75.2091 111.655 75.2074C111.682 75.2058 111.71 75.2095 111.736 75.2185C111.761 75.2275 111.785 75.2415 111.806 75.2598C111.826 75.278 111.843 75.3002 111.855 75.3249C111.867 75.3496 111.874 75.3765 111.876 75.404C111.877 75.4314 111.874 75.459 111.865 75.485C111.078 77.7653 110.852 79.8253 111.193 81.6064C111.458 82.9837 112.075 84.1648 112.932 84.9275C114.364 86.2007 115.323 85.9691 115.337 85.9665C115.39 85.9517 115.447 85.9587 115.495 85.9861C115.544 86.0134 115.579 86.0589 115.594 86.1124C115.609 86.166 115.602 86.2232 115.574 86.2716C115.547 86.3199 115.502 86.3554 115.448 86.3703C115.341 86.3962 115.231 86.4078 115.121 86.4047V86.4047Z" fill="#303C60"/>
<path d="M121.362 91.3672C123.681 91.8889 126.617 98.3581 128.053 102.503C129.501 106.683 131.956 111.869 133.563 113.48C135.171 115.09 145.733 118.826 145.733 118.826C145.733 118.826 119.636 118.877 120.17 118.826C120.704 118.775 121.362 91.3672 121.362 91.3672Z" fill="#A8CEFF"/>
<path d="M135.216 116.748C133.788 116.543 128.634 117.209 130.828 116.288C133.022 115.367 132.717 114.191 132.717 114.191C132.717 114.191 129.604 116.799 129.043 114.518C128.559 112.552 128.373 105.607 126.536 98.6464C125.019 95.1953 123.033 91.7425 121.362 91.3672C121.362 91.3672 121.304 93.818 121.207 97.2545C121.848 104.858 122.936 116.03 123.211 118.847C126.67 118.852 132.459 118.847 137.303 118.84L140.524 118.686C140.524 118.686 136.645 116.953 135.216 116.748Z" fill="#93BBF0"/>
<path d="M112.821 89.9345C112.821 89.9345 105.436 94.0717 103.712 94.9523C101.987 95.8329 108.536 121.662 109.993 122.769C111.449 123.876 124.267 122.959 125.726 121.563C127.185 120.168 124.61 115.889 125.869 107.319C127.129 98.7494 122.017 91.3505 121.36 91.3669C120.703 91.3832 116.415 89.9336 116.415 89.9336L112.821 89.9345Z" fill="#A8CEFF"/>
<path d="M109.995 122.768C111.455 123.875 120.623 123.9 124.527 122.682C124.968 122.545 126.969 121.746 127.018 120.994C126.547 120.908 124.676 121.131 123.917 120.956C121.276 120.348 119.821 117.069 119.821 117.069C119.821 117.069 118.368 116.544 115.115 115.163C111.862 113.782 113.201 109.6 113.125 107.76C113.048 105.919 109.91 99.8951 104.016 95.3301L103.476 95.5728C103.053 99.7694 108.647 121.744 109.995 122.768Z" fill="#93BBF0"/>
<path d="M160.749 102.502H142.964L134.861 119.784H154.454L161.788 104.138C161.869 103.962 161.905 103.77 161.893 103.577C161.88 103.384 161.82 103.197 161.716 103.034C161.613 102.871 161.47 102.737 161.301 102.644C161.132 102.551 160.942 102.502 160.749 102.502Z" fill="#75A1DE"/>
<path d="M135.922 120.031H125.215C124.896 120.031 124.59 119.904 124.365 119.678C124.139 119.452 124.013 119.146 124.013 118.826C124.013 118.506 124.139 118.2 124.365 117.974C124.59 117.748 124.896 117.621 125.215 117.621H135.149L141.867 103.127C141.931 102.98 142.024 102.847 142.14 102.737C142.256 102.627 142.393 102.541 142.543 102.484C142.693 102.427 142.852 102.401 143.012 102.407C143.172 102.413 143.329 102.451 143.474 102.518C143.619 102.586 143.75 102.682 143.857 102.8C143.965 102.919 144.048 103.058 144.101 103.209C144.155 103.36 144.177 103.521 144.168 103.681C144.159 103.841 144.118 103.998 144.047 104.142L137.006 119.334C136.91 119.541 136.757 119.717 136.565 119.84C136.373 119.964 136.15 120.03 135.922 120.031V120.031Z" fill="#3E6BAB"/>
<path d="M117.357 116.34C122.001 117.209 123.142 118.278 125.674 118.686C128.543 119.15 128.202 119.786 126.071 119.786C123.939 119.786 118.584 119.872 116.746 119.46C114.909 119.047 117.357 116.34 117.357 116.34Z" fill="#F09959"/>
<path d="M103.134 95.4372C99.5748 106.843 94.5296 119.786 95.3334 119.786C96.1372 119.786 116.572 120.614 117.376 119.925C118.18 119.235 117.95 116.588 117.835 116.243C117.721 115.898 106.217 113.851 106.217 113.851C106.217 113.851 107.732 110.892 108.306 105.109C108.879 99.3256 103.805 93.2739 103.134 95.4372Z" fill="#A8CEFF"/>
<path d="M115.53 80.0234L112.663 90.5257C112.663 90.5257 117.506 98.1054 118.838 97.4322C120.17 96.759 118.094 91.2712 118.094 90.5257C118.094 89.7802 120.17 82.0895 120.17 82.0895L115.53 80.0234Z" fill="#F09959"/>
<path d="M118.193 91.0592C118.143 90.8843 118.109 90.705 118.093 90.5237C118.093 89.7782 120.17 82.0875 120.17 82.0875L115.533 80.0215L114.588 83.4967C115.409 87.0872 116.904 89.4778 118.193 91.0592Z" fill="#E38540"/>
<path d="M126.256 79.8496C126.802 82.8944 126.443 86.9395 123.745 87.9673C121.048 88.9951 117.798 87.0281 116.487 83.577C115.176 80.1259 116.301 76.4871 118.999 75.4584C121.697 74.4297 125.603 76.2117 126.256 79.8496Z" fill="#F09959"/>
<path d="M117.126 81.5628C117.504 82.6268 117.176 83.7149 116.393 83.9964C115.61 84.2779 114.668 83.6391 114.29 82.5743C113.912 81.5094 114.24 80.4222 115.023 80.1407C115.806 79.8592 116.748 80.4979 117.126 81.5628Z" fill="#F09959"/>
<path d="M126.288 76.0236C125.369 83.1685 116.708 82.2483 116.708 82.2483C116.708 82.2483 114.922 79.8947 114.118 81.1292C113.314 82.3636 115.235 73.8844 120.203 73.6175C121.838 73.5297 126.288 76.0236 126.288 76.0236Z" fill="#303C60"/>
<path d="M112.794 77.4134C115.385 77.4134 117.485 75.4382 117.485 73.0016C117.485 70.5651 115.385 68.5898 112.794 68.5898C110.204 68.5898 108.104 70.5651 108.104 73.0016C108.104 75.4382 110.204 77.4134 112.794 77.4134Z" fill="#303C60"/>
<path d="M103.45 171.709H104.524L111.45 139.539H109.09L103.45 171.709Z" fill="#2E5B9A"/>
<path d="M136.8 171.709H135.727L127.666 138.402H130.026L136.8 171.709Z" fill="#2E5B9A"/>
<path d="M115.689 140.743C111.395 140.743 108.669 139.968 106.929 138.273C104.777 136.17 104.331 132.913 104.324 128.669C104.319 125.329 104.238 123.153 104.059 121.395C104.031 121.079 104.128 120.765 104.329 120.521C104.53 120.276 104.819 120.121 105.134 120.088C105.448 120.056 105.763 120.149 106.009 120.347C106.256 120.545 106.415 120.833 106.451 121.148C106.64 122.992 106.723 125.239 106.728 128.664C106.735 132.969 107.28 135.25 108.607 136.546C109.97 137.877 112.433 138.426 116.594 138.321C120.61 138.221 123.378 137.659 125.596 137.202C128.516 136.607 130.629 136.177 133.133 137.374C133.278 137.441 133.409 137.536 133.517 137.653C133.625 137.771 133.709 137.909 133.764 138.059C133.818 138.21 133.842 138.37 133.834 138.529C133.827 138.689 133.787 138.846 133.718 138.991C133.65 139.135 133.553 139.264 133.434 139.371C133.314 139.477 133.175 139.559 133.024 139.611C132.873 139.663 132.713 139.684 132.554 139.673C132.395 139.663 132.239 139.62 132.096 139.549C130.319 138.698 128.811 139.006 126.075 139.563C123.761 140.034 120.882 140.621 116.653 140.726C116.324 140.737 116.002 140.743 115.689 140.743Z" fill="#2E5B9A"/>
<path d="M105.927 119.924L112.505 120.198L110.753 138.399C110.753 138.399 105.85 135.262 105.927 131.886C106.003 128.51 105.927 119.924 105.927 119.924Z" fill="#2E5B9A"/>
<path d="M138.396 121.62C143.957 120.774 145.848 121.041 149.252 127.388C152.656 133.735 157.186 145.17 159.791 146.647C163.715 148.871 165.015 154.322 166.626 154.078C168.237 153.833 169.274 154.546 167.521 156.007C165.767 157.468 162.937 158.711 161.969 158.452C161.001 158.193 160.251 154 157.722 152.639C155.192 151.278 155.953 150.158 156.119 148.954C156.285 147.75 148.739 142.206 143.05 135.311C139.574 131.093 137.784 128.316 137.518 125.796C137.253 123.275 138.396 121.62 138.396 121.62Z" fill="#F09959"/>
<path d="M152.183 144.645C150.895 141.36 149.596 135.939 148.378 130.968C146.646 123.899 144.831 122.221 143.681 121.467C142.291 121.118 140.643 121.278 138.396 121.62C138.396 121.62 137.253 123.279 137.518 125.799C137.784 128.32 139.574 131.1 143.05 135.314C146.045 138.944 149.555 142.201 152.183 144.645Z" fill="#E38540"/>
<path d="M140.09 127.209C140.09 127.209 138.61 138.4 137.232 139.54C136.247 140.353 135.549 140.408 134.859 137.069C134.17 133.731 135.931 121.27 135.931 121.27L140.09 127.209Z" fill="#2E5B9A"/>
<path d="M138.91 133.265L125.215 135.572L132.947 124.459L138.831 123.258L142.36 124.071L138.91 133.265Z" fill="#F09959"/>
<path d="M156.119 148.957C155.675 150.751 155.728 152.077 156.5 152.745C157.272 153.413 160.186 158.346 160.186 158.346L161.095 158.208L158.991 153.69L156.119 148.957Z" fill="#2E5B9A"/>
<path d="M161.969 158.458C162.936 158.716 165.768 157.473 167.52 156.013C169.273 154.553 168.237 153.839 166.626 154.084C166.536 154.097 166.444 154.093 166.356 154.07C165.551 155.872 162.905 157.224 162.051 155.32C161.204 153.434 157.579 149.68 156.118 148.877C156.121 148.906 156.121 148.934 156.118 148.963C155.952 150.168 155.192 151.287 157.72 152.647C160.248 154.008 160.997 158.2 161.969 158.458Z" fill="#2E5B9A"/>
<path d="M110.443 122.07C105.584 130.811 108.903 136.366 114.808 136.932C120.714 137.498 130.037 136.416 135.471 131.89C140.905 127.365 145.366 122.577 144.746 121.863C144.125 121.149 110.443 122.07 110.443 122.07Z" fill="#E38540"/>
<path d="M137.998 128.591C138.993 125.599 140.14 123.303 142.361 123.261C144.696 123.217 146.132 124.435 146.232 128.264C146.35 132.827 146.511 147.925 146.301 154.639C146.142 159.718 147.62 161.354 147.494 166.648C147.401 170.639 151.645 168.623 150.005 170.694C148.878 172.118 145.522 171.652 143.461 171.39C141.624 171.155 144.411 165.637 141.869 164.158C139.688 162.893 139.645 160.837 141.023 159.282C142.4 157.726 141.176 153.123 140.257 149.899C139.339 146.675 137.914 143.19 136.979 135.571C136.712 133.401 137.39 130.419 137.998 128.591Z" fill="#F09959"/>
<path d="M148.553 169.064C147.85 169.279 146.982 169.516 146.227 169.541C144.696 169.592 144.237 167.906 144.135 165.612C144.05 163.609 142.596 160.456 141.107 159.178C141.08 159.214 141.052 159.25 141.022 159.284C139.648 160.839 139.687 162.899 141.868 164.16C144.41 165.636 141.623 171.154 143.46 171.391C145.521 171.654 148.877 172.12 150.004 170.696C151.071 169.348 149.748 169.241 148.553 169.064Z" fill="#2E5B9A"/>
<path d="M141.367 158.715C141.367 158.715 139.134 161.052 139.338 162.024C139.543 162.996 140.231 165.451 140.346 167.344C140.461 169.237 140.563 171.409 140.563 171.409C140.563 171.409 141.367 171.409 141.43 171.18C141.494 170.951 141.941 163.487 141.941 163.487L141.367 158.715Z" fill="#2E5B9A"/>
<path d="M108.103 121.27C108.103 121.27 105.221 133.53 108.862 136.929C112.503 140.328 127.624 137.273 131.185 137.067C133.597 136.929 135.931 139.879 135.931 139.879C135.931 139.879 134.247 133.038 135.395 127.514C136.543 121.99 138.401 121.618 138.401 121.618L135.935 121.274L108.103 121.27Z" fill="#75A1DE"/>
<path d="M107.45 118.066C108.682 120.688 106.123 125.211 107.02 126.519C107.918 127.827 113.052 126.701 116.417 123.987C119.781 121.273 126.149 120.676 126.149 120.676L107.45 118.066Z" fill="#A8CEFF"/>
<path d="M112.663 140.407C122.843 140.79 133.558 140.609 133.558 139.088C133.558 137.567 133.099 136.493 125.216 137.108C117.332 137.722 111.974 138.566 109.602 138.029C107.229 137.492 112.663 140.407 112.663 140.407Z" fill="#2E5B9A"/>
<path d="M230.539 119.785H87.1087C86.4964 119.785 86 120.283 86 120.897V121.452C86 122.066 86.4964 122.563 87.1087 122.563H230.539C231.151 122.563 231.647 122.066 231.647 121.452V120.897C231.647 120.283 231.151 119.785 230.539 119.785Z" fill="#2E5B9A"/>
<path d="M163.932 82.5536C164.918 86.0391 162.509 89.6305 159.856 90.3872C157.202 91.1439 155.309 88.7731 154.323 85.2876C153.336 81.8021 154.688 78.3656 157.341 77.6106C159.994 76.8557 162.945 79.068 163.932 82.5536Z" fill="#F09959"/>
<path d="M155.073 150.092C155.073 150.092 161.873 160.68 162.791 161.14C163.709 161.599 166.006 161.716 165.145 163.442C164.284 165.168 163.943 171.958 163.135 172.303C162.328 172.648 155.444 173.454 156.477 172.303C157.51 171.152 158.146 171.728 158.667 169.656C159.189 167.584 159.921 163.672 158.946 162.867C157.97 162.062 152 154.81 152 154.81L155.073 150.092Z" fill="#F09959"/>
<path d="M163.837 154.639C163.837 154.639 155.571 168.296 154.04 169.523C152.509 170.751 147.457 172.593 151.591 172.9C155.724 173.206 157.714 171.522 160.316 170.748C162.918 169.973 166.134 169.52 164.909 167.525C163.684 165.531 164.193 161.176 166.833 158.413C169.472 155.651 163.837 154.639 163.837 154.639Z" fill="#F09959"/>
<path d="M180.695 122.969C180.695 122.969 160.232 122.433 152.118 129.107C147.373 136.32 135.888 157.601 135 159.945C135.612 160.559 139.057 161.667 140.588 161.512C145.104 156.115 151.072 151.448 153.447 147.215C156.372 141.997 157.274 139.389 162.019 138.928C166.764 138.468 177.477 136.934 180.695 136.934C183.914 136.934 180.695 122.969 180.695 122.969Z" fill="#6791C9"/>
<path d="M162.764 172.935H161.692L154 140.766H156.36L162.764 172.935Z" fill="#2E5B9A"/>
<path d="M154 172.936H155.073L163.9 139.629H161.54L154 172.936Z" fill="#2E5B9A"/>
<path d="M177.234 121.564L165.337 123.623C165.337 123.623 149.528 123.768 142.301 125.118C135.726 126.346 134.757 133.834 142.301 144.143C146.586 149.996 150.209 154.673 157.619 159.942C159.504 158.555 160.224 158.03 160.745 154.69C160.209 153.954 158.821 149.34 158.39 148.437C154.292 139.85 148.822 136.73 148.746 135.882C149.664 134.386 173.075 143.68 177.729 138.213C182.173 132.998 177.234 121.564 177.234 121.564Z" fill="#75A1DE"/>
<path d="M164.18 94.5657C161.047 94.1241 157.856 94.7215 154.871 96.89C152.263 99.5586 149.312 103.949 149.493 111.199C149.722 120.41 148.072 120.997 149.794 123.529C156.976 126.502 169.26 139.276 166.368 125.581C164.272 115.665 170.961 108.278 165.566 97.2739C165.126 96.3761 164.577 95.5075 164.18 94.5657Z" fill="#F37168"/>
<path d="M151.491 114.66C151.351 119.46 150.675 120.873 151.192 122.378C154.12 122.678 159.476 123.853 160.815 125.731C162.345 127.883 163.876 128.186 163.162 126.6C162.447 125.015 160.56 122.764 163.469 115.04C166.377 107.317 167.755 102.099 164.897 96.7285L151.491 114.66Z" fill="#D54A41"/>
<path d="M163.311 94.5654C161.381 89.9866 160.906 84.8379 160.906 84.8379L155.855 86.334C155.855 86.334 158.725 92.7783 155.97 95.0801C155.283 95.6471 154.626 96.2488 154 96.8827C156.986 94.7212 160.177 94.1238 163.311 94.5654Z" fill="#F09959"/>
<path d="M161.197 86.0602C160.898 85.7933 160.524 85.4576 160.131 85.1133L156.009 86.334C156.009 86.3417 156.003 86.3486 156 86.3563C156.1 86.5844 157.149 89.0396 157.288 91.4009C158.516 90.6536 159.864 89.4364 161.397 87.3093C161.315 86.835 161.249 86.4149 161.197 86.0602Z" fill="#E38540"/>
<path d="M171.689 96.0044C166.486 97.8285 167.063 103.322 162.275 111.426C159.797 115.619 157.495 115.558 157.495 115.558C153.203 115.537 148.915 115.265 144.654 114.744C140.252 114.204 139.973 115.519 143.034 116.615C149.209 118.828 155.616 121.21 160.782 120.635C165.949 120.06 174.78 106.846 175.24 103.406C175.871 98.6471 174.309 95.0859 171.689 96.0044Z" fill="#F09959"/>
<path d="M161.156 141.971C160.834 141.971 160.503 141.967 160.164 141.959C155.935 141.854 153.056 141.27 150.741 140.796C148.005 140.239 146.497 139.935 144.721 140.783C144.578 140.851 144.424 140.89 144.266 140.899C144.108 140.907 143.951 140.884 143.802 140.831C143.653 140.779 143.516 140.697 143.398 140.591C143.281 140.485 143.185 140.357 143.117 140.214C143.049 140.072 143.01 139.917 143.002 139.759C142.993 139.601 143.016 139.442 143.069 139.293C143.121 139.144 143.203 139.007 143.308 138.889C143.414 138.771 143.542 138.676 143.684 138.607C146.187 137.408 148.299 137.839 151.221 138.435C153.442 138.888 156.207 139.451 160.223 139.554C164.746 139.666 167.513 138.986 168.926 137.415C170.189 136.012 170.558 133.673 170.096 130.053C169.939 128.827 169.782 127.808 169.643 126.909C169.254 124.386 168.997 122.719 169.315 120.149C169.61 117.753 170.403 114.554 172.24 108.356C172.331 108.049 172.539 107.792 172.82 107.639C173.101 107.487 173.43 107.453 173.736 107.544C174.042 107.636 174.299 107.845 174.45 108.126C174.602 108.408 174.636 108.738 174.545 109.044C171.11 120.642 171.282 121.775 172.02 126.542C172.161 127.455 172.32 128.491 172.481 129.747C173.042 134.115 172.481 137.064 170.712 139.03C168.89 141.049 165.921 141.971 161.156 141.971Z" fill="#2E5B9A"/>
<path d="M165.399 166.15C159.914 168.839 156.963 170.381 155.204 170.233C154.789 170.199 154.445 170.156 154.156 170.111C152.2 171.27 149.077 172.639 152.591 172.9C156.724 173.208 158.714 171.523 161.316 170.748C163.918 169.973 167.134 169.521 165.909 167.526C165.66 167.101 165.487 166.635 165.399 166.15V166.15Z" fill="#D54A41"/>
<path d="M161.018 161.363C160.883 165.717 160.286 170.03 157.63 170.845C157.012 171.041 156.359 171.1 155.717 171.018C155.299 171.534 154.789 171.541 154.105 172.303C153.074 173.454 159.961 172.647 160.764 172.303C161.567 171.958 161.912 165.167 162.773 163.441C163.481 162.023 162.057 161.691 161.018 161.363Z" fill="#D54A41"/>
<path d="M170.679 120.031H153.254C153.025 120.031 152.801 119.965 152.608 119.842C152.415 119.718 152.261 119.542 152.164 119.334L145.123 104.142C145.052 103.998 145.011 103.841 145.002 103.681C144.993 103.521 145.016 103.36 145.069 103.209C145.122 103.058 145.205 102.919 145.313 102.8C145.421 102.682 145.551 102.586 145.696 102.518C145.841 102.451 145.998 102.413 146.158 102.407C146.318 102.401 146.477 102.427 146.627 102.484C146.777 102.541 146.914 102.627 147.03 102.737C147.146 102.847 147.239 102.98 147.303 103.127L154.021 117.621H170.681C171 117.621 171.306 117.748 171.531 117.974C171.757 118.2 171.883 118.506 171.883 118.826C171.883 119.146 171.757 119.452 171.531 119.678C171.306 119.904 171 120.031 170.681 120.031H170.679Z" fill="#75A1DE"/>
<path d="M164.494 114.893C160.973 114.842 157.481 112.741 155.747 113.046C154.012 113.351 148.347 117.291 149.062 117.445C149.776 117.599 154.267 115.265 154.42 115.229C154.573 115.193 155.542 116.846 157.941 117.452C160.339 118.058 157.958 115.65 165.392 117.901C170.226 119.364 164.494 114.893 164.494 114.893Z" fill="#F09959"/>
<path d="M163.921 90.3867L164.436 94.5652C164.436 94.5652 159.88 94.8364 157.613 96.1147C155.346 97.3931 152 101.088 152 101.088L154.733 96.3704L155.127 93.3523L163.921 90.3867Z" fill="#F2E5DE"/>
<path d="M170.54 95.5017C167.155 94.8656 165.59 97.9052 163.396 102.867C161.202 107.829 157.456 113.855 156.711 114.632C155.967 115.409 144.159 114.632 144.159 114.632C144.159 114.632 143.802 118.059 144.159 118.468C144.516 118.877 146.556 118.826 146.556 118.826C146.556 118.826 147.373 119.48 148.138 119.997C148.903 120.514 155.384 121.486 158.395 121.333C161.406 121.18 164.161 120.923 164.569 120.463C164.977 120.002 173.192 107.318 173.703 102.765C174.214 98.2116 172.267 95.8263 170.54 95.5017Z" fill="#F2E5DE"/>
<path d="M154.454 74.6321C148.053 74.9394 149.057 84.5911 149.057 84.5911C149.057 84.5911 150.72 85.1076 154.202 84.53C153.934 83.497 154.049 80.8473 154.049 80.8473C154.049 80.8473 154.454 82.9994 154.967 84.3001C155.704 84.6385 156.536 84.338 157.952 83.9954C158.68 87.0617 160.735 88.3581 162.141 88.8015C163.696 89.2913 165.341 89.8749 167.178 88.9547C169.015 88.0345 168.005 78.6246 167.029 76.7308C165.565 73.89 163.131 71.3471 158.922 72.6891C156.811 73.3623 154.454 74.6321 154.454 74.6321Z" fill="#303C60"/>
<path d="M144 86.0949L146.617 89.9265C146.617 89.9265 143.717 97.1903 152.15 100.48C158.756 103.058 157.978 107.599 154.993 112.165C152.008 116.732 156.779 120.72 156.779 120.72C156.779 120.72 157.507 115.661 163.925 114.707C172.676 113.405 175.154 101.627 168.618 95.738C163.208 90.8648 161.563 94.9004 157.902 90.5274C154.24 86.1543 147.329 89.1079 147.329 89.1079L144.796 85.4062L144 86.0949Z" fill="#303C60"/>
<path d="M170.526 107.582C170.491 107.582 170.457 107.573 170.426 107.557C170.401 107.544 170.38 107.526 170.362 107.504C170.345 107.483 170.332 107.458 170.324 107.432C170.316 107.405 170.313 107.378 170.316 107.35C170.319 107.323 170.327 107.296 170.34 107.272C172.545 103.231 170.745 98.3352 169.84 97.0095C169.745 96.8692 169.654 96.7272 169.557 96.5791C168.668 95.1863 167.561 93.4534 161.657 92.3885C160.243 92.1303 159.096 91.2893 157.878 90.3957C155.361 88.5432 152.506 86.4436 146.306 89.3033C146.281 89.3166 146.253 89.3246 146.225 89.3267C146.196 89.3289 146.168 89.3253 146.141 89.316C146.114 89.3068 146.089 89.2921 146.068 89.2729C146.047 89.2537 146.03 89.2304 146.019 89.2044C146.007 89.1784 146.001 89.1503 146 89.1218C146 89.0933 146.005 89.065 146.016 89.0386C146.026 89.0122 146.043 88.9884 146.063 88.9684C146.083 88.9485 146.107 88.933 146.134 88.9228C152.558 85.9589 155.518 88.1369 158.128 90.0583C159.302 90.9191 160.412 91.7378 161.73 91.9762C167.812 93.0738 168.974 94.8919 169.908 96.3527C170.001 96.4999 170.091 96.6394 170.183 96.7737C170.728 97.5734 171.402 99.2288 171.678 101.125C171.917 102.769 171.942 105.206 170.704 107.475C170.686 107.507 170.66 107.533 170.629 107.552C170.598 107.571 170.563 107.581 170.526 107.582V107.582Z" fill="#303C60"/>
<path d="M160.814 89.9966C160.361 89.9939 159.908 89.9573 159.459 89.8873C157.226 89.5524 154.235 88.2809 154 81.1351C153.998 81.0795 154.018 81.0255 154.056 80.9848C154.094 80.9442 154.146 80.9202 154.202 80.9182C154.23 80.9169 154.257 80.9212 154.283 80.9308C154.309 80.9404 154.333 80.9551 154.353 80.974C154.373 80.9929 154.389 81.0157 154.4 81.041C154.412 81.0663 154.418 81.0936 154.418 81.1213C154.515 84.0792 155.105 86.2683 156.16 87.6284C156.965 88.6614 158.034 89.2494 159.521 89.4723C161.604 89.7857 162.985 89.3983 163.627 88.3214C163.657 88.2773 163.703 88.2464 163.755 88.235C163.807 88.2236 163.861 88.2325 163.907 88.2599C163.953 88.2874 163.986 88.3313 164.001 88.3827C164.016 88.4341 164.01 88.4891 163.986 88.5366C163.407 89.5042 162.343 89.9966 160.814 89.9966Z" fill="#303C60"/>
<path d="M43.0623 95.0664C35.6341 99.325 25.3016 117.025 27.4828 119.914C29.664 122.803 41.3732 115.207 41.3732 115.207L43.0623 95.0664Z" fill="#96CFE0"/>
<path d="M56.941 74.5418C54.1071 74.4643 55.1573 72.351 51.8949 73.1946C50.1774 73.6388 51.4466 74.3455 49.2182 74.1157C46.9897 73.8859 45.8939 73.6552 45.6114 75.1126C45.3289 76.57 45.1949 77.0314 44.1232 77.2647C43.0515 77.4979 42.568 79.4168 44.1232 80.7175C45.6784 82.0182 44.9227 82.5588 44.5783 83.6331C44.234 84.7075 45.4079 84.7841 46.0459 85.7852C46.684 86.7864 45.4586 86.9715 46.3774 87.8366C47.2963 88.7018 48.5836 88.6243 48.5836 88.6243L52.448 81.1927L56.941 74.5418Z" fill="#303C60"/>
<path d="M114.733 163.743C114.733 163.743 118.866 163.858 122.081 162.592C125.295 161.326 127.476 159.37 126.903 161.671C126.329 163.972 123.688 167.921 121.392 168.306C119.096 168.691 118.292 171.224 117.029 171.224C115.767 171.224 113.929 168.306 110.715 166.849C107.785 165.517 114.733 163.743 114.733 163.743Z" fill="#2E5B9A"/>
<path d="M82.1639 163.354C82.1639 163.354 83.9029 165.757 86.9274 167.429C90.0516 169.155 93.6566 169.985 91.4213 170.766C89.1859 171.547 85.9184 172.154 82.7315 171.226C80.4988 170.575 77.8744 170.439 77.1823 169.38C76.4901 168.321 77.9972 165.662 77.3703 161.689C76.8662 158.504 82.1639 163.354 82.1639 163.354Z" fill="#2E5B9A"/>
<path d="M62.8096 124.73C62.8096 124.73 86.7508 133.717 88.6804 136.23C90.6101 138.742 115.775 161.624 115.775 163.313C115.775 165.002 111.489 168.071 111.489 168.071C111.489 168.071 89.905 154.797 84.5473 148.045C79.1895 141.294 66.1124 138.038 59.1607 137.413C52.2091 136.788 62.8096 124.73 62.8096 124.73Z" fill="#3E6BAB"/>
<path d="M63.7273 124.732C63.7273 124.732 80.1072 124.118 83.6281 124.732C87.149 125.346 94.8718 125.334 89.8206 139.629C85.8609 150.831 84.5547 165.012 84.5547 165.012L76.6817 166.951C76.6817 166.951 76.9942 141.45 80.7504 134.661C78.0153 135.113 72.9942 135.994 66.0348 137.99C53.1251 141.691 46.0473 139.837 46.0473 139.837L44.1211 133.084L63.7273 124.732Z" fill="#4476BD"/>
<path d="M50.0487 82.3379L46.0469 94.1916L51.1032 97.5291L53.968 87.286L50.0487 82.3379Z" fill="#A86B48"/>
<path d="M51.5556 95.9125L53.9687 87.2869L50.0468 82.3379L48.5869 86.6739C49.091 90.5899 50.3113 93.8292 51.5556 95.9125Z" fill="#7A4E34"/>
<path d="M60.2581 84.3447C60.3877 87.9499 58.6213 91.0705 55.8132 91.3477C53.005 91.6248 50.4434 88.9373 50.0896 85.3493C49.7357 81.7613 51.7263 78.6244 54.5345 78.3464C57.3426 78.0683 60.0528 78.6572 60.2581 84.3447Z" fill="#A86B48"/>
<path d="M44.1208 93.8477C31.8406 102.164 39.4767 115.604 42.1749 125.425C44.472 133.79 44.3973 138.845 44.7417 138.845C45.086 138.845 53.5353 137.579 58.3572 133.206C63.1792 128.833 66.439 124.598 66.439 124.598C66.439 124.598 60.2611 123.495 58.2422 115.484C57.2168 111.417 57.6831 109.209 55.3464 102.764C53.0098 96.3191 44.1208 93.8477 44.1208 93.8477Z" fill="#A2DFF2"/>
<path d="M44.1211 93.8469L45.441 90.623C45.441 90.623 49.612 93.3855 51.2805 94.6896C52.9491 95.9938 53.9719 96.3011 53.9719 96.3011C53.9719 96.3011 54.573 100.927 54.1831 100.507C49.2556 95.2139 44.1211 93.8469 44.1211 93.8469Z" fill="#A2DFF2"/>
<path d="M38.6797 172.935H39.7523L47.445 140.766H45.0843L38.6797 172.935Z" fill="#2E5B9A"/>
<path d="M70.8128 172.936H69.7402L60.9131 139.629H63.2729L70.8128 172.936Z" fill="#2E5B9A"/>
<path d="M50.6294 141.972C46.3356 141.972 43.6099 141.197 41.8701 139.502C39.7163 137.399 39.2715 134.142 39.2646 129.898C39.2509 120.975 38.7588 119.131 36.253 113.682C36.1195 113.392 36.1065 113.06 36.2169 112.761C36.3273 112.461 36.552 112.217 36.8416 112.083C37.1312 111.95 37.462 111.937 37.7611 112.047C38.0603 112.158 38.3033 112.383 38.4368 112.673C41.0852 118.432 41.6554 120.549 41.6691 129.89C41.676 134.194 42.2205 136.475 43.5481 137.771C44.9101 139.102 47.373 139.65 51.5345 139.546C55.5509 139.446 58.3187 138.883 60.5368 138.427C63.4566 137.832 65.57 137.402 68.0733 138.599C68.361 138.737 68.5824 138.984 68.6887 139.285C68.795 139.587 68.7775 139.918 68.6401 140.206C68.5026 140.495 68.2565 140.717 67.9558 140.823C67.6551 140.93 67.3245 140.912 67.0368 140.775C65.26 139.923 63.752 140.231 61.016 140.788C58.6974 141.259 55.8223 141.846 51.5938 141.951C51.2649 141.969 50.942 141.972 50.6294 141.972Z" fill="#2E5B9A"/>
<path d="M103.712 119.892H86.2862C85.9674 119.892 85.6616 119.765 85.4361 119.539C85.2106 119.313 85.084 119.006 85.084 118.687C85.084 118.367 85.2106 118.06 85.4361 117.834C85.6616 117.608 85.9674 117.481 86.2862 117.481H102.946L109.665 102.987C109.73 102.842 109.824 102.711 109.94 102.602C110.056 102.493 110.193 102.409 110.342 102.353C110.491 102.297 110.65 102.272 110.809 102.278C110.967 102.285 111.124 102.322 111.268 102.39C111.412 102.457 111.542 102.552 111.649 102.67C111.756 102.788 111.839 102.925 111.893 103.076C111.946 103.226 111.97 103.385 111.962 103.544C111.954 103.703 111.914 103.859 111.845 104.003L104.804 119.194C104.707 119.403 104.553 119.579 104.359 119.703C104.166 119.826 103.941 119.892 103.712 119.892Z" fill="#3E6BAB"/>
<path d="M44.5801 105.956C44.5801 105.956 47.6415 115.316 51.4304 119.191C55.2192 123.066 62.8424 124.368 65.2314 124.216C63.3284 123.449 59.7036 121.266 58.2463 115.482C57.221 111.416 57.6873 109.208 55.3506 102.763C53.6159 97.979 48.2719 95.3845 45.6329 94.3652C48.9305 96.7351 53.0457 100.643 54.3115 103.616C55.7147 106.915 44.5801 105.956 44.5801 105.956Z" fill="#96CFE0"/>
<path d="M86.8376 114.171C86.8376 114.171 92.1181 111.754 92.6926 111.984C93.2671 112.214 99.1213 115.759 99.1213 116.346C99.1213 116.933 93.955 114.158 93.955 114.158C93.955 114.158 94.5295 115.692 94.1851 116.428C93.8408 117.164 89.869 117.163 86.2846 116.933C82.7001 116.703 86.8376 114.171 86.8376 114.171Z" fill="#A86B48"/>
<path d="M44.7492 98.7229C39.8809 108.725 56.5803 118.866 66.4869 119.765C76.3935 120.664 88.1644 117.417 88.1644 117.417L86.8376 114.17C86.8376 114.17 66.9892 111.573 66.4851 111.209C65.9811 110.845 46.532 95.06 44.7492 98.7229Z" fill="#A2DFF2"/>
<path d="M51.0768 82.6767C51.5285 83.8664 51.197 85.0957 50.3383 85.4237C49.4795 85.7517 48.4164 85.0527 47.9647 83.863C47.513 82.6733 47.8445 81.444 48.7041 81.116C49.5637 80.7881 50.6268 81.4871 51.0768 82.6767Z" fill="#A86B48"/>
<path d="M60.266 75.0605C61.6108 74.4976 63.1257 73.895 62.6568 76.1857C62.4533 77.1834 62.6568 76.9019 63.0141 77.8213C63.3713 78.7406 62.1141 79.4646 61.7062 79.9734C61.2983 80.4821 62.3004 81.0408 61.4837 81.6546C60.6671 82.2684 59.5945 81.4273 58.8302 81.6546C56.5597 82.3338 56.8405 80.5432 55.5669 80.1713C54.2934 79.7995 53.6665 79.8563 53.42 80.6749C53.1736 81.4936 54.3123 84.1863 53.3428 83.9306C52.3732 83.675 52.1551 85.8486 51.894 87.077C51.633 88.3054 50.9683 86.2291 51.0112 84.825C51.0774 82.673 50.5441 81.7665 49.7523 81.1639C48.9605 80.5613 48.6239 75.0821 52.4514 74.8798C56.2788 74.6775 56.3029 74.3047 57.9354 73.9587C59.5679 73.6126 59.652 75.3171 60.266 75.0605Z" fill="#303C60"/>
<path d="M156.547 137.633C158.987 139.866 157.926 142.1 156.122 146.247C154.318 150.395 154 165.71 154 165.71L155.486 165.497C155.486 165.497 155.274 149.757 157.289 145.503C159.305 141.248 160.154 139.122 161.957 140.505C163.761 141.887 156.547 137.633 156.547 137.633Z" fill="#74B570"/>
<path d="M148.132 134.743C148.428 133.419 150.188 131.988 152.541 130.771C152.191 132.724 151.07 135.916 152.231 136.571C153.796 137.453 152.383 132.997 152.987 130.545C155.309 129.42 157.769 128.609 160.304 128.135C160.304 128.144 160.297 128.153 160.293 128.162C158.914 131.672 157.111 133.054 157.854 133.586C158.412 133.986 160.232 129.932 162.635 127.854C164.439 127.758 165.965 128.002 166.867 128.715C168.263 129.822 169.2 130.804 167.796 134.176C166.894 134.805 165.844 135.186 164.75 135.283C161.567 135.603 160.081 135.708 162.309 136.772C163.4 137.289 165.229 136.743 166.712 136.407C166.231 137.296 165.639 138.301 164.921 139.447C164.493 140.133 163.993 140.771 163.43 141.349C162.404 141.547 161.509 141.548 161.036 141.345C159.551 140.707 155.732 138.686 154.777 139.537C153.843 140.37 161.85 140.898 161.296 143.013C157.413 145.252 152.972 144.189 152.187 142.13C151.132 139.377 147.24 138.726 148.132 134.743Z" fill="#9CD499"/>
<path d="M165.007 149.863C160.763 146.672 156.413 149.65 154.187 153.054C151.96 156.457 153.55 164.114 153.55 164.114C153.55 164.114 154.399 164.114 154.399 163.795C154.399 163.477 152.065 154.756 157.582 150.82C161.033 148.359 163.523 149.544 163.842 150.714C164.16 151.884 162.462 154.011 162.462 154.011L165.007 149.863Z" fill="#74B570"/>
<path d="M156.189 143.307C160.433 143.307 161.812 149.901 160.645 153.729C159.478 157.557 157.885 164.683 157.885 164.683L156.825 163.622C156.825 163.622 160.857 153.626 159.902 149.16C158.947 144.695 156.613 143.949 156.189 143.949C155.764 143.949 156.189 143.307 156.189 143.307Z" fill="#9CD499"/>
<path d="M159.066 153.758C159.357 153.359 159.74 153.036 160.182 152.816C160.126 153.124 160.053 153.429 159.962 153.728C159.43 155.473 158.811 157.901 158.293 160.029C158.246 159.756 158.173 159.34 158.062 158.689C158.035 158.536 158.015 158.37 158 158.194C158.437 156.736 158.792 155.255 159.066 153.758V153.758Z" fill="#74B570"/>
<path d="M152.195 153.789C160.257 150.386 156.009 145.716 163.118 148.797C163.619 149.013 164.228 149.562 164.835 150.317C164.106 150.539 163.338 150.601 162.583 150.498C160.461 150.179 161.204 151.881 164.705 152.306C165.262 152.362 165.812 152.478 166.345 152.65C168.014 155.862 168.765 160.087 165.236 161.556C164.54 161.846 163.68 162.011 162.723 162.072C161.634 161.205 162.989 156.182 161.309 156.875C159.697 157.542 161.815 161.18 161.525 162.097C159.934 162.069 158.171 161.808 156.488 161.39C155.822 161.015 155.313 160.513 155.156 159.854C154.626 157.616 158.127 156.238 158.233 154.323C158.33 152.564 156.949 158.197 153.292 159.024C149.988 157.482 148.425 155.38 152.195 153.789Z" fill="#9CD499"/>
<path d="M162.943 147.772C163.792 145.964 161.564 145.534 161.67 146.921C161.764 148.147 161.775 151.124 160.521 151.935C158.36 151.7 155.419 150.827 153.195 149.496C153.167 149.306 153.2 149.112 153.289 148.942C154.244 147.028 160.397 145.432 158.488 144.795C156.967 144.286 154.302 147.286 152.154 148.797C150.866 147.815 150 146.644 150 145.341C150 143.574 152.142 141.574 154.911 140.618C156.158 140.744 157.316 141.427 159.124 142.455C161.796 143.972 161.178 141.518 158.652 140.062C160.832 140.175 163.007 141.109 164.61 143.341C164.61 143.341 164.459 144.294 165.469 145.77C168.217 149.794 165.045 152.14 161.256 151.991C161.467 150.931 162.357 149.021 162.943 147.772Z" fill="#9CD499"/>
<path d="M153.95 149.683C156.025 151.29 158.329 153.169 161.158 154.445C163.987 155.721 163.422 159.881 163.422 159.881C163.422 159.881 163.846 156.289 161.488 155.06C159.13 153.832 157.575 152.366 155.782 152.083C153.99 151.8 153 151.516 153 151.516C153 151.516 153.566 150.381 153.236 149.956C152.906 149.53 153.95 149.683 153.95 149.683Z" fill="#74B570"/>
<path d="M166.231 130.811C158.639 132.843 153.075 137.712 152.037 138.894C151 140.076 151 140.406 151 140.406L151.802 141.919L152.179 141.729C152.179 141.729 151.566 140.454 153.169 138.803C155.934 135.949 159.299 133.697 161.61 132.704C163.921 131.712 166.231 130.811 166.231 130.811Z" fill="#74B570"/>
<path d="M159.265 172.936H156.364C155.374 172.936 154.424 172.541 153.724 171.839C153.023 171.137 152.63 170.185 152.63 169.192V162.512H163V169.192C163 170.185 162.607 171.137 161.906 171.839C161.206 172.541 160.256 172.936 159.265 172.936V172.936Z" fill="#75A1DE"/>
<path d="M163.369 163.707H153V164.439H163.369V163.707Z" fill="white"/>
<path d="M163.369 165.041H153V165.471H163.369V165.041Z" fill="white"/>
<path d="M147.507 23.01C147.507 19.2292 146.022 15.6006 143.372 12.9098C140.722 10.2191 137.122 8.68289 133.351 8.63399C125.48 8.53328 118.948 14.8871 118.823 22.7767C118.758 26.4683 120.117 30.0424 122.617 32.7538C123.725 33.9583 124.341 35.5367 124.341 37.1751V43.6219C124.348 45.6297 125.147 47.5531 126.564 48.9723C127.981 50.3916 129.9 51.1914 131.903 51.1973H134.424C136.427 51.1914 138.347 50.3916 139.763 48.9723C141.18 47.5531 141.979 45.6297 141.987 43.6219V37.176C141.993 35.5249 142.618 33.9364 143.737 32.7246C146.166 30.0759 147.512 26.6079 147.507 23.01V23.01Z" fill="#F5DC95"/>
<path opacity="0.5" d="M145.503 23.9741C145.503 20.7217 144.225 17.6 141.946 15.2852C139.667 12.9705 136.57 11.6488 133.325 11.6065C126.553 11.5204 120.933 16.9859 120.826 23.7736C120.77 26.949 121.939 30.0236 124.089 32.3561C125.042 33.3926 125.572 34.7506 125.572 36.1602V41.7048C125.577 43.4328 126.264 45.0885 127.483 46.3104C128.702 47.5323 130.354 48.2211 132.078 48.2266H134.247C135.971 48.2211 137.622 47.5323 138.841 46.3104C140.06 45.0885 140.747 43.4328 140.753 41.7048V36.161C140.758 34.7408 141.296 33.3744 142.258 32.332C144.348 30.0534 145.507 27.0698 145.503 23.9741V23.9741Z" fill="white"/>
<path d="M135.284 39.7582H130.56C130.453 39.7587 130.349 39.7188 130.27 39.6465C130.191 39.5741 130.141 39.4746 130.131 39.3674C130.122 39.2753 129.241 30.1358 125.164 27.5739C125.114 27.5452 125.07 27.5066 125.035 27.4604C125 27.4142 124.974 27.3614 124.96 27.3051C124.946 27.2489 124.943 27.1903 124.952 27.133C124.961 27.0757 124.982 27.0208 125.013 26.9716C125.043 26.9225 125.084 26.88 125.131 26.8468C125.179 26.8137 125.232 26.7905 125.289 26.7786C125.346 26.7668 125.404 26.7665 125.461 26.7779C125.518 26.7893 125.571 26.812 125.619 26.8448C129.597 29.3412 130.727 37.0431 130.943 38.8965H134.827C134.813 37.7346 134.943 36.5754 135.213 35.4454C135.702 33.3226 136.9 30.1203 139.832 26.9231C139.91 26.839 140.017 26.789 140.131 26.7841C140.245 26.7793 140.356 26.82 140.44 26.8973C140.524 26.9746 140.573 27.0821 140.578 27.1962C140.583 27.3104 140.542 27.4218 140.465 27.5059C135.104 33.3596 135.701 39.2245 135.707 39.283C135.714 39.3435 135.708 39.4047 135.689 39.4626C135.671 39.5205 135.64 39.5738 135.6 39.6191C135.559 39.6643 135.509 39.7004 135.454 39.725C135.398 39.7495 135.338 39.762 135.278 39.7617L135.284 39.7582Z" fill="#94BDF2"/>
<path d="M138.82 28.1652C137.225 28.1652 135.051 27.0297 132.761 25.7987C129.804 27.3775 127.042 28.7936 125.496 27.8544C124.77 27.4128 124.423 26.5485 124.434 25.2125C124.445 23.9548 124.805 23.1069 125.504 22.6919C127.05 21.7726 129.82 23.2394 132.763 24.8225C135.763 23.2188 138.59 21.7235 140.133 22.6661C140.826 23.0896 141.168 23.9488 141.152 25.2219C141.136 26.5459 140.755 27.436 140.024 27.869C139.656 28.075 139.24 28.1773 138.82 28.1652V28.1652ZM133.674 25.3115C136.031 26.5683 138.499 27.7709 139.587 27.127C140.043 26.8584 140.28 26.2128 140.293 25.2108C140.306 24.2638 140.102 23.6552 139.686 23.403C138.633 22.7591 136.077 24.034 133.674 25.3115ZM126.664 23.2644C126.412 23.2555 126.162 23.315 125.941 23.4366C125.519 23.6862 125.301 24.2879 125.293 25.2237C125.284 26.2162 125.502 26.855 125.941 27.1175C127.001 27.7614 129.476 26.5649 131.85 25.3097C129.931 24.2828 127.916 23.2644 126.664 23.2644Z" fill="#94BDF2"/>
<path d="M134.683 49.457H131.935C130.963 49.457 130.175 50.2471 130.175 51.2218V51.48C130.175 52.4546 130.963 53.2447 131.935 53.2447H134.683C135.656 53.2447 136.444 52.4546 136.444 51.48V51.2218C136.444 50.2471 135.656 49.457 134.683 49.457Z" fill="#94BDF2"/>
<path d="M123.924 38.9844V43.5468C123.924 47.9139 127.488 51.4863 131.844 51.4863H134.484C138.84 51.4863 142.404 47.9139 142.404 43.5468V38.9844H123.924Z" fill="#94BDF2"/>
<path d="M142.326 38.2383H124.235C123.665 38.2383 123.204 38.7008 123.204 39.2713V39.3858C123.204 39.9563 123.665 40.4188 124.235 40.4188H142.326C142.895 40.4188 143.357 39.9563 143.357 39.3858V39.2713C143.357 38.7008 142.895 38.2383 142.326 38.2383Z" fill="#9EC8FF"/>
<path d="M142.39 42.0528L124.436 44.2763C124.302 44.293 124.165 44.2829 124.035 44.2467C123.905 44.2106 123.783 44.149 123.676 44.0655C123.569 43.9821 123.48 43.8784 123.413 43.7603C123.346 43.6423 123.304 43.5123 123.287 43.3776L123.272 43.264C123.256 43.1293 123.266 42.9928 123.302 42.862C123.338 42.7313 123.399 42.6089 123.483 42.5019C123.566 42.395 123.669 42.3055 123.787 42.2386C123.905 42.1718 124.035 42.1288 124.169 42.1122L142.124 39.8886C142.258 39.872 142.394 39.8821 142.525 39.9183C142.655 39.9544 142.777 40.016 142.884 40.0994C142.991 40.1829 143.08 40.2866 143.147 40.4046C143.213 40.5227 143.256 40.6527 143.273 40.7874L143.287 40.901C143.303 41.0356 143.293 41.1722 143.257 41.303C143.221 41.4337 143.16 41.5561 143.076 41.663C142.993 41.77 142.89 41.8595 142.772 41.9263C142.654 41.9932 142.524 42.0362 142.39 42.0528Z" fill="#9EC8FF"/>
<path d="M142.39 45.2032L124.436 47.4267C124.302 47.4434 124.165 47.4333 124.035 47.3971C123.905 47.361 123.783 47.2994 123.676 47.2159C123.569 47.1325 123.48 47.0288 123.413 46.9107C123.346 46.7927 123.304 46.6627 123.287 46.528L123.272 46.4144C123.256 46.2797 123.266 46.1431 123.302 46.0124C123.338 45.8816 123.399 45.7593 123.483 45.6523C123.566 45.5454 123.669 45.4559 123.787 45.389C123.905 45.3222 124.035 45.2792 124.169 45.2626L142.124 43.039C142.258 43.0224 142.394 43.0325 142.525 43.0686C142.655 43.1048 142.777 43.1664 142.884 43.2498C142.991 43.3333 143.08 43.437 143.147 43.555C143.213 43.6731 143.256 43.8031 143.273 43.9377L143.287 44.0514C143.303 44.186 143.293 44.3226 143.257 44.4534C143.221 44.5841 143.16 44.7065 143.076 44.8134C142.993 44.9204 142.89 45.0098 142.772 45.0767C142.654 45.1436 142.524 45.1866 142.39 45.2032V45.2032Z" fill="#9EC8FF"/>
<path d="M141.282 48.5752L126.328 50.4269C126.205 50.4423 126.08 50.4332 125.96 50.4C125.841 50.3669 125.728 50.3104 125.631 50.2338C125.533 50.1572 125.451 50.062 125.389 49.9536C125.328 49.8452 125.289 49.7258 125.274 49.6022L125.239 49.3198C125.223 49.1963 125.232 49.0708 125.265 48.9508C125.299 48.8307 125.355 48.7184 125.431 48.6202C125.508 48.522 125.603 48.4399 125.711 48.3785C125.819 48.3172 125.938 48.2778 126.061 48.2627L141.016 46.4111C141.265 46.3811 141.516 46.4513 141.713 46.6061C141.911 46.761 142.039 46.988 142.07 47.2375L142.105 47.5198C142.12 47.6433 142.111 47.7685 142.077 47.8884C142.044 48.0082 141.988 48.1204 141.911 48.2184C141.835 48.3164 141.74 48.3983 141.632 48.4596C141.524 48.5208 141.405 48.5601 141.282 48.5752V48.5752Z" fill="#9EC8FF"/>
<path d="M158.638 52.6601H168.276C168.276 57.9603 163.925 62.3213 158.638 62.3213C153.35 62.3213 149 57.962 149 52.6601C149 47.3582 153.35 42.998 158.638 42.998V52.6601Z" fill="#9EC8FF"/>
<path d="M163.639 51.3085C163.639 48.746 162.623 46.2884 160.816 44.4764C159.008 42.6644 156.556 41.6465 154 41.6465V51.3085H163.639Z" fill="#F39892"/>
<path d="M154 51.3086C154 53.8711 155.015 56.3287 156.823 58.1407C158.631 59.9527 161.082 60.9706 163.639 60.9706C158.351 60.9706 154 56.6088 154 51.3086Z" fill="#F39892"/>
<path d="M163.639 41.6465C161.082 41.6465 158.631 42.6644 156.823 44.4764C155.015 46.2884 154 48.746 154 51.3085C154 46.0084 158.351 41.6465 163.639 41.6465Z" fill="#F39892"/>
<path d="M154 60.9706C156.556 60.9706 159.008 59.9527 160.816 58.1407C162.623 56.3287 163.639 53.8711 163.639 51.3086C163.639 56.6088 159.287 60.9706 154 60.9706Z" fill="#F39892"/>
<path d="M84.222 46.2695H82.1172V52.3755H84.222V46.2695Z" fill="#9EC8FF"/>
<path d="M111.202 48.2578H109.098V52.3769H111.202V48.2578Z" fill="#9EC8FF"/>
<path d="M93.1419 38.0898H91.0371V52.3755H93.1419V38.0898Z" fill="#9EC8FF"/>
<path d="M97.6038 45.9551H95.499V52.3761H97.6038V45.9551Z" fill="#9EC8FF"/>
<path d="M102.064 44.1367H99.959V52.3758H102.064V44.1367Z" fill="#9EC8FF"/>
<path d="M88.682 42.2383H86.5771V52.3755H88.682V42.2383Z" fill="#9EC8FF"/>
<path d="M106.539 39.8906H104.435V52.3762H106.539V39.8906Z" fill="#9EC8FF"/>
<path d="M26.0114 34.6688L14.9712 27.9043L12.9746 40.7213C15.5009 41.1145 18.0868 40.7496 20.4066 39.6726C22.7265 38.5955 24.6766 36.8545 26.0114 34.6688Z" fill="#A2DFF2"/>
<path d="M26.023 34.6559C26.0531 34.6068 26.0917 34.5397 26.09 34.5423C27.2327 32.6196 27.8597 30.4332 27.91 28.1957C27.9602 25.9582 27.432 23.7457 26.3768 21.7734C22.4703 23.8214 24.7993 22.5783 14.9717 27.9035C26.0299 34.6826 24.3124 33.6349 26.023 34.6559Z" fill="#9CD499"/>
<path d="M2.83594 23.4201L14.971 27.9025L26.3555 21.732C21.0304 11.8607 6.6969 13.0444 2.83594 23.4201Z" fill="#9EC8FF"/>
<path d="M12.9747 40.7213L14.9713 27.9043L2.83626 23.4219C-0.0500127 31.1772 5.07246 39.4722 12.9747 40.7213Z" fill="#F39892"/>
<path d="M2.04206 25.5427C2.25676 25.5416 2.46806 25.5965 2.65521 25.702C2.76042 25.1168 2.90765 24.5399 3.09575 23.976L9.68498 26.4096C9.68498 26.4096 9.68498 26.4053 9.68498 26.4035C9.67568 26.1083 9.77814 25.8205 9.9718 25.5978L9.31142 25.3542L3.39546 23.1694C3.87049 22.0096 4.51408 20.9267 5.30533 19.9559C5.02899 19.8528 4.79663 19.6573 4.64752 19.4023C3.79301 20.4503 3.09976 21.6205 2.5908 22.8741H2.58307L2.43365 23.2761L2.28337 23.6807H2.29024C2.0835 24.2976 1.92219 24.9288 1.80762 25.5694C1.88469 25.5528 1.96322 25.5438 2.04206 25.5427V25.5427Z" fill="white"/>
<path d="M26.9304 21.9111L26.9382 21.9068L26.7338 21.528L26.7209 21.5056L26.5491 21.194H26.5431C25.255 18.9506 23.4181 17.161 21.2094 16.0074C18.8496 14.797 16.1878 14.3057 13.5526 14.594C10.9175 14.8824 8.42417 15.9378 6.38042 17.6301C6.63114 17.7851 6.82306 18.0196 6.92573 18.2964C8.96827 16.5879 11.5 15.5749 14.1547 15.404C18.9449 15.07 23.3529 17.4201 25.7634 21.559L22.4014 23.3814C21.7075 23.7558 20.7371 24.2818 19.1123 25.1633L15.0882 27.3507L14.9851 27.4075L14.6468 27.2001L14.6288 27.318L12.2612 26.4434C12.2596 26.7405 12.1468 27.0262 11.9452 27.244L14.4939 28.1857L12.6184 40.2202C9.79138 39.6629 7.24054 38.1505 5.39168 35.9354C3.54281 33.7204 2.50778 30.9366 2.45934 28.0488C2.32577 28.0987 2.18451 28.1246 2.04199 28.1255C1.89118 28.1255 1.74161 28.0981 1.60059 28.0445C1.64829 31.1382 2.75606 34.1212 4.73798 36.493C6.7199 38.8649 9.45536 40.4812 12.4853 41.0707V41.0785L12.9087 41.1456L13.3381 41.2128V41.205C15.8186 41.51 18.3347 41.1127 20.6016 40.058C22.8685 39.0034 24.7955 37.3336 26.1644 35.2377L26.173 35.2429L26.2589 35.1051L26.3954 34.8796C26.4169 34.8452 26.4418 34.8021 26.4564 34.778L26.465 34.7625L26.4719 34.7513L26.6075 34.5284H26.6015C27.6815 32.6126 28.2762 30.4605 28.3336 28.2608C28.3909 26.061 27.9091 23.8808 26.9304 21.9111V21.9111ZM13.4634 40.3545L15.2969 28.6075L20.0595 31.5275C21.9806 32.7051 23.0815 33.3766 23.7685 33.8018L25.413 34.8099C24.1365 36.7605 22.3405 38.3137 20.2285 39.2937C18.1166 40.2737 15.773 40.6411 13.4634 40.3545V40.3545ZM25.8707 34.0652L25.7848 34.017C25.3331 33.7493 25.1373 33.6331 24.2391 33.083L15.8276 27.9275L22.8101 24.1398C23.8355 23.5863 24.2554 23.365 25.3005 22.8201L26.1928 22.3578C27.0893 24.1894 27.5285 26.2119 27.4724 28.2514C27.4163 30.2908 26.8666 32.286 25.8707 34.0652V34.0652Z" fill="#E7F3FE"/>
<path d="M85.765 13.5117H50.1645C49.777 13.5117 49.4629 13.8266 49.4629 14.215V29.5715C49.4629 29.96 49.777 30.2748 50.1645 30.2748H85.765C86.1525 30.2748 86.4667 29.96 86.4667 29.5715V14.215C86.4667 13.8266 86.1525 13.5117 85.765 13.5117Z" fill="#9EC8FF"/>
<path d="M84.8884 17.916H51.0414C50.7284 17.916 50.4746 18.1704 50.4746 18.4842V28.9201C50.4746 29.2339 50.7284 29.4883 51.0414 29.4883H84.8884C85.2014 29.4883 85.4551 29.2339 85.4551 28.9201V18.4842C85.4551 18.1704 85.2014 17.916 84.8884 17.916Z" fill="white"/>
<path d="M52.1226 14.7461H51.3016C51.128 14.7461 50.9873 14.8872 50.9873 15.0612V15.7386C50.9873 15.9126 51.128 16.0537 51.3016 16.0537H52.1226C52.2962 16.0537 52.4369 15.9126 52.4369 15.7386V15.0612C52.4369 14.8872 52.2962 14.7461 52.1226 14.7461Z" fill="white"/>
<path d="M54.7583 14.7461H53.9374C53.7638 14.7461 53.623 14.8872 53.623 15.0612V15.7386C53.623 15.9126 53.7638 16.0537 53.9374 16.0537H54.7583C54.9319 16.0537 55.0726 15.9126 55.0726 15.7386V15.0612C55.0726 14.8872 54.9319 14.7461 54.7583 14.7461Z" fill="white"/>
<path d="M57.395 14.7461H56.5741C56.4005 14.7461 56.2598 14.8872 56.2598 15.0612V15.7386C56.2598 15.9126 56.4005 16.0537 56.5741 16.0537H57.395C57.5686 16.0537 57.7093 15.9126 57.7093 15.7386V15.0612C57.7093 14.8872 57.5686 14.7461 57.395 14.7461Z" fill="white"/>
<path d="M84.0309 20.4538H65.5282C65.3852 20.4482 65.2499 20.3872 65.1507 20.2838C65.0515 20.1804 64.9961 20.0425 64.9961 19.899C64.9961 19.7555 65.0515 19.6176 65.1507 19.5142C65.2499 19.4108 65.3852 19.3498 65.5282 19.3442H84.0309C84.1054 19.3412 84.1798 19.3534 84.2495 19.38C84.3192 19.4065 84.3829 19.4469 84.4366 19.4987C84.4904 19.5505 84.5331 19.6127 84.5624 19.6815C84.5916 19.7503 84.6066 19.8242 84.6066 19.899C84.6066 19.9737 84.5916 20.0477 84.5624 20.1165C84.5331 20.1853 84.4904 20.2474 84.4366 20.2993C84.3829 20.3511 84.3192 20.3915 84.2495 20.418C84.1798 20.4446 84.1054 20.4567 84.0309 20.4538V20.4538Z" fill="#9EC8FF"/>
<path d="M70.1146 29.0143H51.6118C51.5373 29.0173 51.463 29.0051 51.3933 28.9786C51.3236 28.952 51.2599 28.9116 51.2062 28.8598C51.1524 28.808 51.1096 28.7458 51.0804 28.6771C51.0512 28.6083 51.0361 28.5343 51.0361 28.4595C51.0361 28.3848 51.0512 28.3108 51.0804 28.242C51.1096 28.1732 51.1524 28.1111 51.2062 28.0593C51.2599 28.0075 51.3236 27.9671 51.3933 27.9405C51.463 27.914 51.5373 27.9018 51.6118 27.9047H70.1146C70.2576 27.9104 70.3929 27.9713 70.4921 28.0747C70.5913 28.1782 70.6467 28.3161 70.6467 28.4595C70.6467 28.603 70.5913 28.7409 70.4921 28.8443C70.3929 28.9478 70.2576 29.0087 70.1146 29.0143V29.0143Z" fill="#9EC8FF"/>
<path d="M73.5229 27.9043H71.6079C71.5035 27.9043 71.4189 27.9891 71.4189 28.0937V28.8245C71.4189 28.9291 71.5035 29.0139 71.6079 29.0139H73.5229C73.6272 29.0139 73.7118 28.9291 73.7118 28.8245V28.0937C73.7118 27.9891 73.6272 27.9043 73.5229 27.9043Z" fill="#9EC8FF"/>
<path d="M76.4096 27.9043H74.4946C74.3902 27.9043 74.3057 27.9891 74.3057 28.0937V28.8245C74.3057 28.9291 74.3902 29.0139 74.4946 29.0139H76.4096C76.514 29.0139 76.5985 28.9291 76.5985 28.8245V28.0937C76.5985 27.9891 76.514 27.9043 76.4096 27.9043Z" fill="#9EC8FF"/>
<path d="M84.2098 22.8754H53.5677C53.4681 22.8754 53.3727 22.8358 53.3023 22.7652C53.2319 22.6947 53.1924 22.599 53.1924 22.4992C53.1924 22.3995 53.2319 22.3038 53.3023 22.2332C53.3727 22.1627 53.4681 22.123 53.5677 22.123H84.2089C84.3084 22.123 84.4039 22.1627 84.4743 22.2332C84.5446 22.3038 84.5842 22.3995 84.5842 22.4992C84.5842 22.599 84.5446 22.6947 84.4743 22.7652C84.4039 22.8358 84.3084 22.8754 84.2089 22.8754H84.2098Z" fill="#9EC8FF"/>
<path d="M84.2092 24.4954H53.5672C53.4706 24.4908 53.3796 24.4491 53.3129 24.379C53.2462 24.3089 53.209 24.2157 53.209 24.1188C53.209 24.0219 53.2462 23.9288 53.3129 23.8586C53.3796 23.7885 53.4706 23.7468 53.5672 23.7422H84.2084C84.3049 23.7468 84.396 23.7885 84.4627 23.8586C84.5294 23.9288 84.5666 24.0219 84.5666 24.1188C84.5666 24.2157 84.5294 24.3089 84.4627 24.379C84.396 24.4491 84.3049 24.4908 84.2084 24.4954H84.2092Z" fill="#9EC8FF"/>
<path d="M176.647 19.6045H160.846V10.3711H172.729L176.647 14.2982V19.6045Z" fill="#FFB8B3"/>
<path d="M172.438 10.3691V15.2974H176.646V14.3505L172.702 10.3958L172.438 10.3691Z" fill="#F39892"/>
<path d="M172.729 10.3691V14.3505H176.647L172.729 10.3691Z" fill="#FFB8B3"/>
<path d="M169.671 13.8369H162.63C162.556 13.8369 162.485 13.8074 162.432 13.7549C162.38 13.7025 162.351 13.6313 162.351 13.5571C162.351 13.4829 162.38 13.4118 162.432 13.3593C162.485 13.3068 162.556 13.2773 162.63 13.2773H169.671C169.745 13.2773 169.816 13.3068 169.869 13.3593C169.921 13.4118 169.951 13.4829 169.951 13.5571C169.951 13.6313 169.921 13.7025 169.869 13.7549C169.816 13.8074 169.745 13.8369 169.671 13.8369Z" fill="white"/>
<path d="M169.671 15.2666H162.63C162.556 15.2666 162.485 15.2371 162.432 15.1846C162.38 15.1322 162.351 15.061 162.351 14.9868C162.351 14.9126 162.38 14.8414 162.432 14.789C162.485 14.7365 162.556 14.707 162.63 14.707H169.671C169.745 14.707 169.816 14.7365 169.869 14.789C169.921 14.8414 169.951 14.9126 169.951 14.9868C169.951 15.061 169.921 15.1322 169.869 15.1846C169.816 15.2371 169.745 15.2666 169.671 15.2666Z" fill="white"/>
<path d="M169.671 16.7724H162.63C162.556 16.7724 162.485 16.743 162.432 16.6905C162.38 16.638 162.351 16.5669 162.351 16.4927C162.351 16.4185 162.38 16.3473 162.432 16.2948C162.485 16.2424 162.556 16.2129 162.63 16.2129H169.671C169.745 16.2129 169.816 16.2424 169.869 16.2948C169.921 16.3473 169.951 16.4185 169.951 16.4927C169.951 16.5669 169.921 16.638 169.869 16.6905C169.816 16.743 169.745 16.7724 169.671 16.7724Z" fill="white"/>
<path d="M168.274 11.5524C168.535 11.5524 168.746 11.3404 168.746 11.0789C168.746 10.8174 168.535 10.6055 168.274 10.6055C168.013 10.6055 167.802 10.8174 167.802 11.0789C167.802 11.3404 168.013 11.5524 168.274 11.5524Z" fill="#3E6BAB"/>
<path d="M108.7 10.8323L98.8398 8.92188L96.5419 20.8391L106.402 22.7496L108.7 10.8323Z" fill="#FAE8B6"/>
<path d="M106.617 15.9741L101.39 14.9617C101.357 14.9557 101.325 14.9431 101.296 14.9245C101.267 14.906 101.242 14.8819 101.223 14.8537C101.204 14.8254 101.19 14.7936 101.183 14.7601C101.176 14.7266 101.176 14.692 101.182 14.6584C101.189 14.6248 101.202 14.5928 101.221 14.5643C101.24 14.5358 101.264 14.5113 101.293 14.4924C101.321 14.4734 101.353 14.4603 101.387 14.4539C101.42 14.4474 101.455 14.4477 101.488 14.4547L106.715 15.467C106.749 15.473 106.781 15.4857 106.81 15.5042C106.839 15.5228 106.863 15.5469 106.883 15.5751C106.902 15.6033 106.916 15.6351 106.923 15.6687C106.929 15.7022 106.93 15.7368 106.923 15.7704C106.917 15.804 106.904 15.836 106.885 15.8645C106.866 15.893 106.841 15.9174 106.813 15.9364C106.784 15.9553 106.753 15.9684 106.719 15.9749C106.685 15.9814 106.651 15.9811 106.617 15.9741V15.9741Z" fill="#9EC8FF"/>
<path d="M106.365 17.2834L101.137 16.271C101.103 16.2655 101.071 16.2532 101.042 16.2348C101.012 16.2165 100.987 16.1924 100.967 16.1641C100.948 16.1358 100.934 16.1038 100.927 16.07C100.919 16.0362 100.919 16.0013 100.926 15.9674C100.932 15.9335 100.945 15.9012 100.964 15.8725C100.984 15.8438 101.008 15.8192 101.037 15.8002C101.066 15.7812 101.098 15.7683 101.132 15.762C101.166 15.7558 101.201 15.7565 101.234 15.764L106.467 16.7763C106.5 16.7823 106.533 16.795 106.561 16.8135C106.59 16.8321 106.615 16.8562 106.634 16.8844C106.653 16.9126 106.667 16.9444 106.674 16.9779C106.681 17.0115 106.681 17.046 106.675 17.0797C106.668 17.1133 106.655 17.1453 106.636 17.1738C106.617 17.2023 106.593 17.2267 106.564 17.2457C106.536 17.2646 106.504 17.2777 106.47 17.2842C106.437 17.2907 106.402 17.2904 106.369 17.2834H106.365Z" fill="#9EC8FF"/>
<path d="M106.105 18.6297L100.877 17.6165C100.811 17.6026 100.752 17.5632 100.715 17.5067C100.678 17.4502 100.664 17.3812 100.677 17.3146C100.689 17.2481 100.728 17.1892 100.784 17.1508C100.839 17.1124 100.908 17.0976 100.975 17.1095L106.203 18.1218C106.27 18.1348 106.329 18.1741 106.368 18.2309C106.406 18.2877 106.42 18.3575 106.407 18.4248C106.394 18.4922 106.355 18.5516 106.298 18.59C106.242 18.6284 106.172 18.6427 106.105 18.6297V18.6297Z" fill="#9EC8FF"/>
<path d="M103.079 10.5097C103.063 10.5932 103.022 10.67 102.963 10.7306C102.903 10.7911 102.827 10.8326 102.744 10.8499C102.661 10.8672 102.575 10.8594 102.496 10.8276C102.418 10.7958 102.35 10.7413 102.302 10.6711C102.254 10.6009 102.228 10.5181 102.228 10.4331C102.227 10.3481 102.251 10.2647 102.297 10.1935C102.343 10.1223 102.41 10.0664 102.488 10.0329C102.566 9.99939 102.652 9.98976 102.735 10.0052C102.791 10.0156 102.844 10.0368 102.891 10.0678C102.939 10.0988 102.98 10.1389 103.012 10.1858C103.043 10.2327 103.066 10.2855 103.077 10.341C103.089 10.3966 103.089 10.4539 103.079 10.5097Z" fill="#3E6BAB"/>
<path d="M166.259 32.5159L151 30.9044L152.007 21.3164L164.106 22.5939L166.933 26.0984L166.259 32.5159Z" fill="#9EC8FF"/>
<path d="M163.208 23.2812L151.85 22.082L151 30.1722L165.121 31.6632L165.619 26.926L162.856 26.6341L163.208 23.2812Z" fill="white"/>
<path d="M162.63 26.2207L155.272 25.446C155.191 25.4364 155.118 25.3954 155.067 25.3319C155.017 25.2685 154.993 25.1876 155.002 25.1068C155.01 25.0261 155.05 24.9519 155.113 24.9003C155.175 24.8488 155.255 24.824 155.336 24.8313L162.694 25.6061C162.735 25.6098 162.774 25.6216 162.81 25.6407C162.846 25.6599 162.878 25.686 162.904 25.7177C162.93 25.7493 162.95 25.7858 162.961 25.825C162.973 25.8643 162.977 25.9054 162.973 25.9462C162.968 25.9869 162.956 26.0264 162.937 26.0623C162.917 26.0982 162.89 26.1299 162.858 26.1554C162.827 26.1809 162.79 26.1999 162.751 26.2111C162.711 26.2223 162.67 26.2256 162.63 26.2207V26.2207Z" fill="#9EC8FF"/>
<path d="M162.63 27.8457L155.272 27.071C155.191 27.0614 155.118 27.0204 155.067 26.9569C155.017 26.8935 154.993 26.8126 155.002 26.7318C155.01 26.6511 155.05 26.5769 155.113 26.5253C155.175 26.4738 155.255 26.449 155.336 26.4563L162.695 27.2311C162.735 27.2354 162.774 27.2476 162.81 27.267C162.845 27.2864 162.877 27.3127 162.902 27.3442C162.927 27.3758 162.946 27.4121 162.958 27.451C162.969 27.49 162.973 27.5308 162.969 27.5711C162.964 27.6115 162.952 27.6506 162.933 27.6862C162.914 27.7219 162.887 27.7534 162.856 27.7789C162.824 27.8044 162.788 27.8234 162.749 27.8349C162.711 27.8463 162.67 27.85 162.63 27.8457V27.8457Z" fill="#9EC8FF"/>
<path d="M162.638 29.5439L155.28 28.7692C155.24 28.7655 155.2 28.7537 155.164 28.7345C155.128 28.7154 155.096 28.6892 155.07 28.6576C155.044 28.6259 155.025 28.5894 155.013 28.5502C155.001 28.511 154.997 28.4698 155.002 28.4291C155.006 28.3884 155.018 28.3489 155.038 28.313C155.057 28.2771 155.084 28.2454 155.116 28.2199C155.148 28.1943 155.185 28.1754 155.224 28.1642C155.263 28.1529 155.304 28.1497 155.345 28.1545L162.703 28.9293C162.783 28.9389 162.856 28.9799 162.907 29.0433C162.958 29.1068 162.981 29.1877 162.973 29.2684C162.964 29.3492 162.924 29.4234 162.862 29.4749C162.799 29.5265 162.719 29.5513 162.638 29.5439V29.5439Z" fill="#9EC8FF"/>
<path d="M175.397 24.0055C175.658 24.0055 175.869 23.7935 175.869 23.5321C175.869 23.2706 175.658 23.0586 175.397 23.0586C175.136 23.0586 174.925 23.2706 174.925 23.5321C174.925 23.7935 175.136 24.0055 175.397 24.0055Z" fill="#3E6BAB"/>
<path d="M163.537 16.0547C163.537 17.0992 163.228 18.1203 162.649 18.9888C162.07 19.8573 161.247 20.5342 160.285 20.9339C159.322 21.3336 158.263 21.4382 157.241 21.2345C156.219 21.0307 155.28 20.5277 154.543 19.7891C153.806 19.0505 153.305 18.1095 153.101 17.085C152.898 16.0605 153.002 14.9987 153.401 14.0336C153.8 13.0686 154.475 12.2438 155.341 11.6635C156.208 11.0832 157.226 10.7734 158.268 10.7734C159.666 10.7734 161.006 11.3299 161.994 12.3203C162.982 13.3107 163.537 14.654 163.537 16.0547V16.0547Z" fill="#9CD499"/>
<path d="M157.69 17.8617H157.681C157.646 17.8606 157.611 17.8524 157.58 17.8376C157.548 17.8228 157.52 17.8017 157.497 17.7756L156.065 16.1452C156.02 16.0937 155.996 16.0262 156 15.9575C156.005 15.8888 156.036 15.8246 156.087 15.7789C156.138 15.7333 156.206 15.7099 156.274 15.714C156.343 15.7182 156.407 15.7494 156.452 15.8009L157.704 17.2264L160.567 14.4175C160.616 14.3696 160.681 14.343 160.75 14.3438C160.818 14.3445 160.883 14.3724 160.931 14.4214C160.979 14.4704 161.006 14.5364 161.005 14.6049C161.004 14.6734 160.976 14.7389 160.927 14.7868L157.87 17.786C157.822 17.834 157.758 17.8612 157.69 17.8617V17.8617Z" fill="white"/>
<path d="M17.114 65.0801H47.4891C48.2707 65.0801 48.9043 64.4449 48.9043 63.6614V52.7821C48.9043 51.9986 48.2707 51.3635 47.4891 51.3635H17.114C16.3324 51.3635 15.6988 51.9986 15.6988 52.7821V63.6614C15.6988 64.4449 16.3324 65.0801 17.114 65.0801Z" fill="#9EC8FF"/>
<path d="M44.8935 63.0101V70.5777L36.1943 61.8574C36.1943 61.8574 44.7166 63.0101 44.8935 63.0101Z" fill="#9EC8FF"/>
<path d="M18.6157 63.7188H45.9868C46.6494 63.7188 47.1865 63.1803 47.1865 62.5162V53.925C47.1865 53.2608 46.6494 52.7224 45.9868 52.7224H18.6157C17.9532 52.7224 17.4161 53.2608 17.4161 53.925V62.5162C17.4161 63.1803 17.9532 63.7188 18.6157 63.7188Z" fill="white"/>
<path d="M30.9757 55.4426H44.423C44.5794 55.4426 44.7295 55.3802 44.8401 55.2693C44.9508 55.1584 45.0129 55.008 45.0129 54.8512C45.0129 54.6943 44.9508 54.5439 44.8401 54.433C44.7295 54.3221 44.5794 54.2598 44.423 54.2598H30.9757C30.8192 54.2598 30.6692 54.3221 30.5585 54.433C30.4479 54.5439 30.3857 54.6943 30.3857 54.8512C30.3857 55.008 30.4479 55.1584 30.5585 55.2693C30.6692 55.3802 30.8192 55.4426 30.9757 55.4426Z" fill="#9EC8FF"/>
<path d="M19.7428 57.7031H44.6837C44.8648 57.7031 45.0117 57.5559 45.0117 57.3743V57.3674C45.0117 57.1858 44.8648 57.0386 44.6837 57.0386H19.7428C19.5617 57.0386 19.4148 57.1858 19.4148 57.3674V57.3743C19.4148 57.5559 19.5617 57.7031 19.7428 57.7031Z" fill="#9EC8FF"/>
<path d="M19.7428 58.9902H44.6837C44.8648 58.9902 45.0117 58.843 45.0117 58.6614V58.6545C45.0117 58.4729 44.8648 58.3257 44.6837 58.3257H19.7428C19.5617 58.3257 19.4148 58.4729 19.4148 58.6545V58.6614C19.4148 58.843 19.5617 58.9902 19.7428 58.9902Z" fill="#9EC8FF"/>
<path d="M157.8 55.4961H159.391C159.727 55.4961 160 55.2228 160 54.8858V53.5721C160 53.235 159.727 52.9618 159.391 52.9618H157.8C157.464 52.9618 157.191 53.235 157.191 53.5721V54.8858C157.191 55.2228 157.464 55.4961 157.8 55.4961Z" fill="#9EC8FF"/>
<path d="M157.8 55.4961H159.391C159.727 55.4961 160 55.2228 160 54.8858V53.5721C160 53.235 159.727 52.9618 159.391 52.9618H157.8C157.464 52.9618 157.191 53.235 157.191 53.5721V54.8858C157.191 55.2228 157.464 55.4961 157.8 55.4961Z" fill="#9EC8FF"/>
<path d="M157.8 55.4961H159.391C159.727 55.4961 160 55.2228 160 54.8858V53.5721C160 53.235 159.727 52.9618 159.391 52.9618H157.8C157.464 52.9618 157.191 53.235 157.191 53.5721V54.8858C157.191 55.2228 157.464 55.4961 157.8 55.4961Z" fill="#9EC8FF"/>
</g>
<defs>
<clipPath id="clip0_714_3825">
<rect width="294" height="184" fill="white"/>
</clipPath>
</defs>
</svg>
