<svg width="308" height="157" viewBox="0 0 308 157" fill="none" xmlns="http://www.w3.org/2000/svg">
<g clip-path="url(#clip0_739_1273)">
<path d="M175.8 74.2988H181.71V69.6675H175.8V74.2988Z" fill="#CFE7F7"/>
<path d="M186.014 71.1367H172.373V130.532H186.014V71.1367Z" fill="#A1D3F3"/>
<path d="M188.669 97.1211V100.623H189.646V107.657H192.973V156.516H175.566V97.1211H188.669Z" fill="#91CCF2"/>
<path d="M155.75 56.0176H150.04V56.657H155.75V56.0176Z" fill="#F8FAFB"/>
<path d="M157.177 56.6641H148.612V67.3909H157.177V56.6641Z" fill="#B5DCF5"/>
<path d="M165.925 89.8125H167.069V36.7222H165.925V89.8125Z" fill="#BADEF5"/>
<path d="M168.468 89.8125H169.612V36.7222H168.468V89.8125Z" fill="#BADEF5"/>
<path d="M172.579 52.1875H154.328V111.343H172.579V52.1875Z" fill="#FCFCFC"/>
<path d="M164.781 56.4609H163.226V59.18H164.781V56.4609Z" fill="#CBE6F7"/>
<path d="M164.781 61.0137H163.226V63.7327H164.781V61.0137Z" fill="#CBE6F7"/>
<path d="M168.119 65.5684H166.563V68.2874H168.119V65.5684Z" fill="#CBE6F7"/>
<path d="M184.232 91.2594H163.726V73.457L184.232 91.2594Z" fill="#E4F1F9"/>
<path d="M165.525 67.7852H140.848V156.522H165.525V67.7852Z" fill="#FCFCFC"/>
<path d="M185.286 89.8008H162.67V156.522H185.286V89.8008Z" fill="#BADEF5"/>
<path d="M174.339 97.1211H160.698V156.516H174.339V97.1211Z" fill="#A1D3F3"/>
<path d="M155.755 65.1855H140.848V67.7851H155.755V65.1855Z" fill="#FCFCFC"/>
<path d="M163.414 115.002H175.139V112.558H163.414V115.002Z" fill="#CBE6F7"/>
<path d="M163.414 119.459H175.139V117.015H163.414V119.459Z" fill="#CBE6F7"/>
<path d="M163.414 123.924H175.139V121.48H163.414V123.924Z" fill="#CBE6F7"/>
<path d="M163.414 128.381H175.139V125.937H163.414V128.381Z" fill="#CBE6F7"/>
<path d="M163.414 132.852H175.139V130.407H163.414V132.852Z" fill="#CBE6F7"/>
<path d="M163.414 137.309H175.139V134.864H163.414V137.309Z" fill="#CBE6F7"/>
<path d="M163.414 141.773H175.139V139.329H163.414V141.773Z" fill="#CBE6F7"/>
<path d="M163.414 146.23H175.139V143.786H163.414V146.23Z" fill="#CBE6F7"/>
<path d="M163.414 150.689H175.139V148.245H163.414V150.689Z" fill="#CBE6F7"/>
<path d="M225.582 26.623H218.522V85.3785H225.582V26.623Z" fill="#93CDF2"/>
<path d="M238.79 28.8398H213.074V101.442H238.79V28.8398Z" fill="#BADEF5"/>
<path d="M231.248 37.6191H229.765V41.4079H231.248V37.6191Z" fill="#FCFCFC"/>
<path d="M233.73 37.9824H232.247V41.7712H233.73V37.9824Z" fill="#A1D3F3"/>
<path d="M228.714 42.4883H227.231V46.277H228.714V42.4883Z" fill="#FCFCFC"/>
<path d="M233.73 42.4883H232.247V46.277H233.73V42.4883Z" fill="#FCFCFC"/>
<path d="M231.248 47.3594H229.765V51.1481H231.248V47.3594Z" fill="#CFE7F7"/>
<path d="M228.714 52.5938H227.231V56.3825H228.714V52.5938Z" fill="#A1D3F3"/>
<path d="M231.248 52.2305H229.765V56.0192H231.248V52.2305Z" fill="#A1D3F3"/>
<path d="M233.73 52.2305H232.247V56.0192H233.73V52.2305Z" fill="#FCFCFC"/>
<path d="M228.714 61.9707H227.231V65.7595H228.714V61.9707Z" fill="#FCFCFC"/>
<path d="M233.73 61.9707H232.247V65.7595H233.73V61.9707Z" fill="#FCFCFC"/>
<path d="M231.248 66.8418H229.765V70.6305H231.248V66.8418Z" fill="#FCFCFC"/>
<path d="M233.73 66.8418H232.247V70.6305H233.73V66.8418Z" fill="#A1D3F3"/>
<path d="M228.714 71.7109H227.231V75.4997H228.714V71.7109Z" fill="#CFE7F7"/>
<path d="M231.248 76.582H229.765V80.3708H231.248V76.582Z" fill="#CFE7F7"/>
<path d="M210.169 84.5957H214.84V83.042H210.169V84.5957Z" fill="#E4F1F9"/>
<path d="M209.575 84.9297H215.435V84.2544H209.575V84.9297Z" fill="#E4F1F9"/>
<path d="M208.108 96.248H216.9V84.9296H208.108V96.248Z" fill="#93CDF2"/>
<path d="M242.65 156.515V69.4758L217.345 54.7869H207.959V52.1934H207.598V75.1828H205.676V59.729H195.334V75.1828H193.601V99.0149H191.657V156.515H242.65Z" fill="#A1D3F3"/>
<path d="M222.6 57.8359V156.517H242.65V69.4771L222.6 57.8359Z" fill="#BADEF5"/>
<path d="M218.167 79.2227H206.22V156.516H218.167V79.2227Z" fill="#EDF5FA"/>
<path d="M216.101 86.8125H215.118V136.036H216.101V86.8125Z" fill="#9CD1F3"/>
<path d="M213.924 86.8125H212.94V136.036H213.924V86.8125Z" fill="#9CD1F3"/>
<path d="M211.741 86.8125H210.758V136.036H211.741V86.8125Z" fill="#9CD1F3"/>
<path d="M209.564 86.8125H208.581V136.036H209.564V86.8125Z" fill="#9CD1F3"/>
<path d="M229.698 77.627H222.794V86.7881H229.698V77.627Z" fill="#BADEF5"/>
<path d="M144.258 91.2773H135.399V156.517H144.258V91.2773Z" fill="#A1D3F3"/>
<path d="M113.96 98.4238H129.439V89.5794H113.96V98.4238Z" fill="#CFE7F7"/>
<path d="M115.931 85.0195H120.725V76.1751H115.931V85.0195Z" fill="#91CCF2"/>
<path d="M118.976 87.918H125.229V81.1891H118.976V87.918Z" fill="#91CCF2"/>
<path d="M113.094 84.2012H113.527V60.5544H113.094V84.2012Z" fill="#91CCF2"/>
<path d="M141.265 81.0215H124.88V156.516H141.265V81.0215Z" fill="#A1D3F3"/>
<path d="M144.769 24.4238H153.233V13.5357L144.769 13.5357V24.4238Z" fill="#91CCF2"/>
<path d="M103.612 156.516L104.595 88.0316H105.773V81.0159L125.157 78.506V92.3283H127.445V17.0314H131.739V0H132.949V17.0314H154.994V90.6073H157.471V156.516H103.612Z" fill="#BFE1F6"/>
<path d="M149.302 49.457H147.769V53.3713H149.302V49.457Z" fill="#CBE6F7"/>
<path d="M151.873 49.834H150.34V53.7482H151.873V49.834Z" fill="#CBE6F7"/>
<path d="M146.691 54.4941H145.158V58.4084H146.691V54.4941Z" fill="#CBE6F7"/>
<path d="M151.873 54.4941H150.34V58.4084H151.873V54.4941Z" fill="#CBE6F7"/>
<path d="M149.302 59.5273H147.769V63.4416H149.302V59.5273Z" fill="#CBE6F7"/>
<path d="M146.691 64.9355H145.158V68.8498H146.691V64.9355Z" fill="#CBE6F7"/>
<path d="M146.691 127.945H145.158V131.86H146.691V127.945Z" fill="#CBE6F7"/>
<path d="M146.691 138.379H145.158V142.293H146.691V138.379Z" fill="#CBE6F7"/>
<path d="M149.302 64.5586H147.769V68.4728H149.302V64.5586Z" fill="#CBE6F7"/>
<path d="M151.873 64.5586H150.34V68.4728H151.873V64.5586Z" fill="#CBE6F7"/>
<path d="M146.691 74.627H145.158V78.5412H146.691V74.627Z" fill="#CBE6F7"/>
<path d="M151.873 74.627H150.34V78.5412H151.873V74.627Z" fill="#CBE6F7"/>
<path d="M149.302 79.6602H147.769V83.5744H149.302V79.6602Z" fill="#CBE6F7"/>
<path d="M151.873 79.6602H150.34V83.5744H151.873V79.6602Z" fill="#CBE6F7"/>
<path d="M151.873 101.084H150.34V104.998H151.873V101.084Z" fill="#CBE6F7"/>
<path d="M151.873 111.146H150.34V115.061H151.873V111.146Z" fill="#CBE6F7"/>
<path d="M151.873 116.178H150.34V120.092H151.873V116.178Z" fill="#CBE6F7"/>
<path d="M146.691 84.6914H145.158V88.6057H146.691V84.6914Z" fill="#CBE6F7"/>
<path d="M149.302 89.7227H147.769V93.6369H149.302V89.7227Z" fill="#CBE6F7"/>
<path d="M122.086 95.4648H109.872V155.529H122.086V95.4648Z" fill="#A1D3F3"/>
<path d="M135.443 76.9766H133.044V81.7812H135.443V76.9766Z" fill="#CBE6F7"/>
<path d="M113.305 85.0371H110.905V89.8418H113.305V85.0371Z" fill="#CBE6F7"/>
<path d="M106.779 105.721H115.177V102.852H106.779V105.721Z" fill="#EDF5FA"/>
<path d="M106.779 110.961H115.177V108.092H106.779V110.961Z" fill="#EDF5FA"/>
<path d="M106.779 116.189H115.177V113.321H106.779V116.189Z" fill="#EDF5FA"/>
<path d="M106.779 121.432H115.177V118.563H106.779V121.432Z" fill="#EDF5FA"/>
<path d="M106.779 126.666H115.177V123.798H106.779V126.666Z" fill="#EDF5FA"/>
<path d="M106.779 131.9H115.177V129.032H106.779V131.9Z" fill="#EDF5FA"/>
<path d="M106.779 137.143H115.177V134.274H106.779V137.143Z" fill="#EDF5FA"/>
<path d="M106.779 142.377H115.177V139.508H106.779V142.377Z" fill="#EDF5FA"/>
<path d="M106.779 147.617H115.177V144.749H106.779V147.617Z" fill="#EDF5FA"/>
<path d="M154.695 24.9258H133.5V155.53H154.695V24.9258Z" fill="#A1D3F3"/>
<path d="M144.086 33.6152H155.844V31.9181H144.086V33.6152Z" fill="#CBE6F7"/>
<path d="M144.086 36.7109H155.844V35.0138H144.086V36.7109Z" fill="#CBE6F7"/>
<path d="M144.086 39.8184H155.844V38.1212H144.086V39.8184Z" fill="#CBE6F7"/>
<path d="M144.086 42.9141H155.844V41.2169H144.086V42.9141Z" fill="#CBE6F7"/>
<path d="M144.086 46.0156H155.844V44.3185H144.086V46.0156Z" fill="#CBE6F7"/>
<path d="M144.086 49.1094H155.844V47.4122H144.086V49.1094Z" fill="#CBE6F7"/>
<path d="M144.086 52.2051H155.844V50.5079H144.086V52.2051Z" fill="#CBE6F7"/>
<path d="M144.086 55.3066H155.844V53.6095H144.086V55.3066Z" fill="#CBE6F7"/>
<path d="M144.086 58.4023H155.844V56.7052H144.086V58.4023Z" fill="#CBE6F7"/>
<path d="M144.086 61.4082H155.844V59.711H144.086V61.4082Z" fill="#CBE6F7"/>
<path d="M144.086 64.5039H155.844V62.8067H144.086V64.5039Z" fill="#CBE6F7"/>
<path d="M144.086 67.5996H155.844V65.9024H144.086V67.5996Z" fill="#CBE6F7"/>
<path d="M144.086 70.7012H155.844V69.004H144.086V70.7012Z" fill="#CBE6F7"/>
<path d="M144.086 73.7969H155.844V72.0997H144.086V73.7969Z" fill="#CBE6F7"/>
<path d="M144.086 76.8984H155.844V75.2013H144.086V76.8984Z" fill="#CBE6F7"/>
<path d="M144.086 80H155.844V78.3028H144.086V80Z" fill="#CBE6F7"/>
<path d="M144.086 83.1016H155.844V81.4044H144.086V83.1016Z" fill="#CBE6F7"/>
<path d="M144.086 86.1973H155.844V84.5001H144.086V86.1973Z" fill="#CBE6F7"/>
<path d="M278.946 90.5957H281.906V89.036H278.946V90.5957Z" fill="#E4F1F9"/>
<path d="M278.568 90.9355H282.284V90.2603H278.568V90.9355Z" fill="#E4F1F9"/>
<path d="M277.647 92.6992H283.218V90.9363H277.647V92.6992Z" fill="#E4F1F9"/>
<path d="M280.085 73.6722H280.779L280.529 65.5449H280.335L280.085 73.6722Z" fill="#E4F1F9"/>
<path d="M279.641 73.5156V89.3579H281.218V73.5156H279.641ZM280.535 80.4836H280.746V88.6766H280.535V80.4836ZM280.113 80.4836H280.324V88.6766H280.113V80.4836Z" fill="#E4F1F9"/>
<path d="M273.297 152.033H284.589V81.29H273.297V152.033Z" fill="#A1D3F3"/>
<path d="M277.647 91.127H280.246V84.5235H277.647V91.127Z" fill="#A1D3F3"/>
<path d="M289.827 94.582H278.535V156.415H289.827V94.582Z" fill="#A1D3F3"/>
<path d="M287.455 113.346H272.486V156.414H287.455V113.346Z" fill="#BADEF5"/>
<path d="M284.967 94.582H283.406V114.195H284.967V94.582Z" fill="#A1D3F3"/>
<path d="M276.669 94.582H289.832V92.365H276.669V94.582Z" fill="#FCFCFC"/>
<path d="M268.46 92.867V45.6571H265.478V43.4101H264.805V43.0635H264.528V42.4659H264.028V37.7868H263.706L263.528 33.6992H263.384L263.211 37.7868H262.862V42.442H262.362V43.0396H262.089V43.3862H261.417V45.6332H253.086L248.293 52.9179V92.8372L268.46 92.867ZM263.378 42.2747H263.228V38.0915H263.378V42.2747ZM263.684 42.2747H263.534V38.0915H263.684V42.2747Z" fill="#B5DCF5"/>
<path d="M255.119 58.7012H245.722V67.8444H255.119V58.7012Z" fill="#93CDF2"/>
<path d="M256.746 73.6406H239.106V128.07H256.746V73.6406Z" fill="#93CDF2"/>
<path d="M242.983 75.6665L239.106 73.6406H256.746L242.983 75.6665Z" fill="#FCFCFC"/>
<path d="M274.286 54.627V69.8656H264.9V63.9913H259.773V61.565H257.046V64.0152H244.155C244.111 64.1048 244.072 64.2004 244.022 64.296V90.4288H238.623V156.517H275.142V54.627H274.286Z" fill="#A1D3F3"/>
<path d="M246.593 94.9941H237.007V96.4582H246.593V94.9941Z" fill="#FCFCFC"/>
<path d="M246.593 98.8125H237.007V100.277H246.593V98.8125Z" fill="#FCFCFC"/>
<path d="M246.593 102.291H237.007V103.755H246.593V102.291Z" fill="#FCFCFC"/>
<path d="M246.593 105.768H237.007V107.232H246.593V105.768Z" fill="#FCFCFC"/>
<path d="M246.593 109.246H237.007V110.71H246.593V109.246Z" fill="#FCFCFC"/>
<path d="M246.593 112.725H237.007V114.189H246.593V112.725Z" fill="#FCFCFC"/>
<path d="M246.593 116.209H237.007V117.673H246.593V116.209Z" fill="#FCFCFC"/>
<path d="M246.593 119.686H237.007V121.15H246.593V119.686Z" fill="#FCFCFC"/>
<path d="M246.593 123.164H237.007V124.628H246.593V123.164Z" fill="#FCFCFC"/>
<path d="M246.593 126.643H237.007V128.107H246.593V126.643Z" fill="#FCFCFC"/>
<path d="M246.593 130.121H237.007V131.585H246.593V130.121Z" fill="#FCFCFC"/>
<path d="M275.147 69.8535H250.42V156.523H275.147V69.8535Z" fill="#CFE7F7"/>
<path d="M265.511 88.9766H263.617V92.0841H265.511V88.9766Z" fill="#FCFCFC"/>
<path d="M268.693 89.2695H266.799V92.377H268.693V89.2695Z" fill="#A1D3F3"/>
<path d="M262.267 92.9668H260.373V96.0743H262.267V92.9668Z" fill="#FCFCFC"/>
<path d="M265.511 96.9648H263.617V100.072H265.511V96.9648Z" fill="#CFE7F7"/>
<path d="M265.511 73.6055H263.617V76.713H265.511V73.6055Z" fill="#FCFCFC"/>
<path d="M265.511 81.5957H263.617V84.7032H265.511V81.5957Z" fill="#CFE7F7"/>
<path d="M265.511 100.957H263.617V104.065H265.511V100.957Z" fill="#A1D3F3"/>
<path d="M268.693 85.791H266.799V88.8985H268.693V85.791Z" fill="#FCFCFC"/>
<path d="M262.267 129.338H260.373V132.445H262.267V129.338Z" fill="#FCFCFC"/>
<path d="M268.693 108.947H266.799V112.055H268.693V108.947Z" fill="#FCFCFC"/>
<path d="M265.511 112.939H263.617V116.047H265.511V112.939Z" fill="#FCFCFC"/>
<path d="M268.693 112.939H266.799V116.047H268.693V112.939Z" fill="#A1D3F3"/>
<path d="M262.267 116.932H260.373V120.039H262.267V116.932Z" fill="#CFE7F7"/>
<path d="M265.511 129.463H263.617V132.57H265.511V129.463Z" fill="#CFE7F7"/>
<path d="M268.693 120.93H266.799V124.037H268.693V120.93Z" fill="#FCFCFC"/>
<path d="M262.267 133.812H260.373V136.92H262.267V133.812Z" fill="#CFE7F7"/>
<path d="M268.693 137.805H266.799V140.912H268.693V137.805Z" fill="#FCFCFC"/>
<path d="M273.065 82.5391H271.171V85.6466H273.065V82.5391Z" fill="#FCFCFC"/>
<path d="M273.065 90.5293H271.171V93.6368H273.065V90.5293Z" fill="#CFE7F7"/>
<path d="M273.065 75.1602H271.171V78.2676H273.065V75.1602Z" fill="#CFE7F7"/>
<path d="M273.065 94.5215H271.171V97.629H273.065V94.5215Z" fill="#A1D3F3"/>
<path d="M273.065 106.504H271.171V109.611H273.065V106.504Z" fill="#FCFCFC"/>
<path d="M273.065 123.027H271.171V126.135H273.065V123.027Z" fill="#CFE7F7"/>
<path d="M144.263 141.152H146.157V138.045H144.263V141.152Z" fill="#C2E1F6"/>
<path opacity="0.47" d="M141.076 140.854H142.97V137.746H141.076V140.854Z" fill="#55B1EB"/>
<path d="M147.502 137.154H149.396V134.047H147.502V137.154Z" fill="#C2E1F6"/>
<path d="M144.263 133.168H146.157V130.06H144.263V133.168Z" fill="#8CCAF1"/>
<path d="M144.263 156.516H146.157V153.408H144.263V156.516Z" fill="#C2E1F6"/>
<path d="M144.263 148.531H146.157V145.424H144.263V148.531Z" fill="#8CCAF1"/>
<path opacity="0.47" d="M144.263 129.17H146.157V126.062H144.263V129.17Z" fill="#55B1EB"/>
<path d="M141.076 144.338H142.97V141.23H141.076V144.338Z" fill="#C2E1F6"/>
<path d="M147.502 100.785H149.396V97.6777H147.502V100.785Z" fill="#C2E1F6"/>
<path d="M141.076 121.18H142.97V118.072H141.076V121.18Z" fill="#C2E1F6"/>
<path d="M144.263 117.188H146.157V114.08H144.263V117.188Z" fill="#C2E1F6"/>
<path opacity="0.47" d="M141.076 117.188H142.97V114.08H141.076V117.188Z" fill="#55B1EB"/>
<path d="M147.502 113.189H149.396V110.082H147.502V113.189Z" fill="#8CCAF1"/>
<path d="M144.263 100.664H146.157V97.5566H144.263V100.664Z" fill="#8CCAF1"/>
<path d="M141.076 109.199H142.97V106.092H141.076V109.199Z" fill="#C2E1F6"/>
<path d="M147.502 96.3145H149.396V93.207H147.502V96.3145Z" fill="#8CCAF1"/>
<path d="M141.076 92.3164H142.97V89.2089H141.076V92.3164Z" fill="#C2E1F6"/>
<path d="M199.989 113.734H198.095V116.842H199.989V113.734Z" fill="#FCFCFC"/>
<path d="M203.171 114.027H201.277V117.135H203.171V114.027Z" fill="#A1D3F3"/>
<path d="M196.75 117.727H194.856V120.834H196.75V117.727Z" fill="#FCFCFC"/>
<path d="M199.989 121.719H198.095V124.826H199.989V121.719Z" fill="#CFE7F7"/>
<path d="M199.989 98.3633H198.095V101.471H199.989V98.3633Z" fill="#FCFCFC"/>
<path d="M199.989 106.354H198.095V109.461H199.989V106.354Z" fill="#CFE7F7"/>
<path d="M199.989 125.717H198.095V128.824H199.989V125.717Z" fill="#A1D3F3"/>
<path d="M203.171 110.549H201.277V113.656H203.171V110.549Z" fill="#FCFCFC"/>
<path d="M203.171 133.699H201.277V136.807H203.171V133.699Z" fill="#FCFCFC"/>
<path d="M199.989 137.697H198.095V140.805H199.989V137.697Z" fill="#FCFCFC"/>
<path d="M203.171 137.697H201.277V140.805H203.171V137.697Z" fill="#A1D3F3"/>
<path d="M196.75 141.689H194.856V144.797H196.75V141.689Z" fill="#CFE7F7"/>
<path d="M203.171 145.682H201.277V148.789H203.171V145.682Z" fill="#FCFCFC"/>
<path d="M64.6169 82.8086H61.1289V83.9679H64.6169V82.8086Z" fill="#E4F1F9"/>
<path d="M65.0612 83.7168H60.6846V84.2188H65.0612V83.7168Z" fill="#E4F1F9"/>
<path d="M66.1558 84.2188H59.5908V92.6747H66.1558V84.2188Z" fill="#93CDF2"/>
<path d="M37.9404 156.516V91.5037L40.512 95.7706H47.5213V78.5957H47.7935V95.7706H49.2265V84.225H56.9523V95.7706H58.2464V113.567H59.6961V156.516H37.9404Z" fill="#A1D3F3"/>
<path d="M59.7178 98.7832H50.7979V156.517H59.7178V98.7832Z" fill="#EDF5FA"/>
<path d="M52.3372 134.74H53.0703L53.0703 97.9703H52.3372L52.3372 134.74Z" fill="#9CD1F3"/>
<path d="M53.97 134.74H54.7031L54.7031 97.9703H53.97L53.97 134.74Z" fill="#9CD1F3"/>
<path d="M55.5911 134.74H56.3242L56.3242 97.9703H55.5911L55.5911 134.74Z" fill="#9CD1F3"/>
<path d="M57.2249 134.74H57.958L57.958 97.9703H57.2249L57.2249 134.74Z" fill="#9CD1F3"/>
<path d="M51.5093 156.521H67.583L67.583 57.8228H51.5093L51.5093 156.521Z" fill="#91CCF2"/>
<path d="M52.7756 64.2891H59.1406V55.1459H52.7756V64.2891Z" fill="#93CDF2"/>
<path d="M30.1309 129.122H39.8617V94.2109L30.1309 129.122Z" fill="#E4F1F9"/>
<path d="M25.9661 109.24H37.9131L37.9131 54.8113H25.9661L25.9661 109.24Z" fill="#91CCF2"/>
<path d="M35.2801 56.8424L37.9128 54.8105H25.9658L35.2801 56.8424Z" fill="#FCFCFC"/>
<path d="M38.8518 90.166H44.4004V89.5863H38.8518V90.166Z" fill="#F8FAFB"/>
<path d="M15.6572 156.517V54.627H19.273V69.8656H21.117V63.9913H24.5883V58.7982H26.4378V63.9913H35.2578V90.4049H40.5898V108.506H45.5997V124.635H47.2715V90.7993L49.2043 76.3435L56.0415 76.5826L57.3634 86.1859V156.517H15.6572Z" fill="#CFE7F7"/>
<path d="M23.3221 69.8828H22.2002V156.032H23.3221V69.8828Z" fill="#91CCF2"/>
<path d="M25.8153 69.8828H24.6934V156.032H25.8153V69.8828Z" fill="#91CCF2"/>
<path d="M28.3094 113.215H27.1875V156.032H28.3094V113.215Z" fill="#91CCF2"/>
<path d="M30.8085 113.215H29.6865V156.032H30.8085V113.215Z" fill="#91CCF2"/>
<path d="M48.9375 77.2148H54.0918V70.3724H48.9375V77.2148Z" fill="#BADEF5"/>
<path d="M33.6245 111.195H26.0986V156.517H33.6245V111.195Z" fill="#91CCF2"/>
<path d="M75.6918 43.666H62.0508V156.516H75.6918V43.666Z" fill="#A1D3F3"/>
<path d="M79.7573 37.207H97.5361V35.2529H79.7573V37.207Z" fill="#B5DCF5"/>
<path d="M79.7573 40.7793H97.5361V38.8252H79.7573V40.7793Z" fill="#B5DCF5"/>
<path d="M79.7573 44.3477H97.5361V42.3935H79.7573V44.3477Z" fill="#B5DCF5"/>
<path d="M79.7573 47.916H97.5361V45.9619H79.7573V47.916Z" fill="#B5DCF5"/>
<path d="M79.7573 51.4883H97.5361V49.5341H79.7573V51.4883Z" fill="#B5DCF5"/>
<path d="M79.7573 55.0566H97.5361V53.1025H79.7573V55.0566Z" fill="#B5DCF5"/>
<path d="M79.7573 58.6309H97.5361V56.6767H79.7573V58.6309Z" fill="#B5DCF5"/>
<path d="M79.7573 62.1914H97.5361V60.2373H79.7573V62.1914Z" fill="#B5DCF5"/>
<path d="M79.7573 65.7656H97.5361V63.8115H79.7573V65.7656Z" fill="#B5DCF5"/>
<path d="M63.9834 156.516H95.7976L96.1031 32.8798L63.9834 28.7266V156.516Z" fill="#B5DCF5"/>
<path d="M63.9834 156.516H70.4373L70.8039 32.6109L63.9834 28.7266V156.516Z" fill="#77C0EF"/>
<path d="M70.8039 32.6109L96.1031 32.8798L63.9834 28.7266L70.8039 32.6109Z" fill="#FCFCFC"/>
<path d="M75.5918 156.516V71.5684H88.6774L95.7145 80.6697V156.516H75.5918Z" fill="#A1D3F3"/>
<path d="M95.7145 80.6697L88.6774 71.5684H75.5918L95.7145 80.6697Z" fill="#BADEF5"/>
<path opacity="0.43" d="M84.8173 94.8984H83.8564V156.522H84.8173V94.8984Z" fill="#E4F1F9"/>
<path opacity="0.43" d="M86.956 94.8984H85.9951V156.522H86.956V94.8984Z" fill="#E4F1F9"/>
<path opacity="0.43" d="M89.0937 94.8984H88.1328V156.522H89.0937V94.8984Z" fill="#E4F1F9"/>
<path opacity="0.43" d="M91.2324 94.8984H90.2715V156.522H91.2324V94.8984Z" fill="#E4F1F9"/>
<path d="M71.9206 156.516H79.752V97.0072H71.9206V156.516Z" fill="#CFE7F7"/>
<path d="M95.3316 156.521H101.241L101.241 80.1489H95.3316L95.3316 156.521Z" fill="#CFE7F7"/>
<path d="M58.4688 143.441H59.7129V140.262H58.4688V143.441Z" fill="#FCFCFC"/>
<path d="M56.375 143.143H57.6191V139.963H56.375V143.143Z" fill="#A1D3F3"/>
<path d="M60.585 139.359H61.8291V136.18H60.585V139.359Z" fill="#FCFCFC"/>
<path d="M58.4688 135.271H59.7129V132.092H58.4688V135.271Z" fill="#CFE7F7"/>
<path d="M58.4688 131.184H59.7129V128.004H58.4688V131.184Z" fill="#A1D3F3"/>
<path d="M56.375 131.184H57.6191V128.004H56.375V131.184Z" fill="#FCFCFC"/>
<path d="M60.585 123.002H61.8291V119.823H60.585V123.002Z" fill="#FCFCFC"/>
<path d="M56.375 123.002H57.6191V119.823H56.375V123.002Z" fill="#FCFCFC"/>
<path d="M58.4688 103.031H59.7129V99.852H58.4688V103.031Z" fill="#FCFCFC"/>
<path d="M56.375 102.721H57.6191V99.5415H56.375V102.721Z" fill="#A1D3F3"/>
<path d="M60.585 98.9375H61.8291V95.7583H60.585V98.9375Z" fill="#FCFCFC"/>
<path d="M58.4688 94.8496H59.7129V91.6704H58.4688V94.8496Z" fill="#CFE7F7"/>
<path d="M58.4688 90.7617H59.7129V87.5825H58.4688V90.7617Z" fill="#A1D3F3"/>
<path d="M56.375 90.7617H57.6191V87.5825H56.375V90.7617Z" fill="#FCFCFC"/>
<path d="M60.585 82.582H61.8291V79.4028H60.585V82.582Z" fill="#FCFCFC"/>
<path d="M56.375 82.582H57.6191V79.4028H56.375V82.582Z" fill="#FCFCFC"/>
<path d="M58.4688 118.916H59.7129V115.737H58.4688V118.916Z" fill="#FCFCFC"/>
<path d="M56.375 118.916H57.6191V115.737H56.375V118.916Z" fill="#A1D3F3"/>
<path d="M60.585 114.828H61.8291V111.649H60.585V114.828Z" fill="#CFE7F7"/>
<path d="M58.4688 110.734H59.7129V107.555H58.4688V110.734Z" fill="#CFE7F7"/>
<path d="M56.375 110.734H57.6191V107.555H56.375V110.734Z" fill="#FCFCFC"/>
<path d="M107.595 137.607H143.724C144.28 152.619 160.742 156.133 160.742 156.133H123.73C123.73 156.133 108.156 152.619 107.595 137.607Z" fill="#4E5683"/>
<path d="M111.233 137.607H155.872C156.428 152.619 172.89 156.133 172.89 156.133H130.773C130.773 156.133 111.817 152.619 111.233 137.607Z" fill="url(#paint0_linear_739_1273)"/>
<path d="M63.1785 140.757H204.049C206.237 140.757 210.586 138.844 210.475 136.49L202.699 26.5324C202.637 25.3854 202.172 24.3066 201.399 23.5144C200.625 22.7222 199.601 22.2758 198.533 22.2656H59.124C56.9301 22.2656 53.8586 24.8413 53.9697 27.1958L59.024 136.49C59.0884 137.634 59.5523 138.709 60.3228 139.501C61.0934 140.292 62.1134 140.741 63.1785 140.757Z" fill="#4E5683"/>
<path d="M65.1338 140.093H206.876C207.389 140.099 207.898 139.991 208.371 139.776C208.844 139.561 209.271 139.243 209.625 138.843C209.979 138.443 210.252 137.968 210.428 137.449C210.604 136.93 210.678 136.378 210.647 135.826L205.582 26.5503C205.517 25.4042 205.052 24.327 204.279 23.5354C203.506 22.7438 202.483 22.2964 201.416 22.2834H59.663C59.1496 22.2775 58.6405 22.3854 58.1675 22.6005C57.6946 22.8156 57.2679 23.1332 56.914 23.5335C56.5602 23.9338 56.2868 24.4083 56.1109 24.9273C55.935 25.4464 55.8604 25.9988 55.8917 26.5503L60.9571 135.826C61.0218 136.974 61.4889 138.053 62.2641 138.845C63.0393 139.637 64.0649 140.083 65.1338 140.093Z" fill="#4E5683"/>
<path d="M65.1335 140.095H206.876C207.389 140.101 207.898 139.993 208.371 139.778C208.844 139.562 209.271 139.245 209.624 138.845C209.978 138.444 210.252 137.97 210.428 137.451C210.603 136.932 210.678 136.379 210.647 135.828L209.814 117.822H60.1348L60.9679 135.828C61.0324 136.974 61.4979 138.051 62.2708 138.843C63.0436 139.634 64.0665 140.082 65.1335 140.095V140.095Z" fill="url(#paint1_linear_739_1273)"/>
<path d="M204.371 112.658L200.439 27.8828H61.1572L65.0896 112.658H204.371Z" fill="white"/>
<path d="M37.5737 141.75C37.5737 141.75 38.9344 123.571 35.8074 119.4C33.1637 115.868 34.9965 110.591 35.6241 109.055C35.6792 108.922 35.7024 108.777 35.6917 108.632C35.681 108.487 35.6368 108.347 35.5631 108.225C34.9021 107.101 33.1803 103.767 34.1301 100.898C34.8141 98.9313 36.0834 97.2631 37.7403 96.1532C37.8761 96.0584 37.9835 95.9233 38.0496 95.7642C38.1156 95.6052 38.1374 95.4289 38.1124 95.2568C37.7125 92.6692 36.7683 82.4623 46.1382 80.1257C46.3084 80.086 46.4859 80.105 46.6454 80.1801C46.805 80.2552 46.9384 80.3826 47.0268 80.544C48.1606 82.6922 48.8644 85.0718 49.093 87.5299C49.4873 91.2111 47.8988 94.456 47.1157 95.8006C47.0095 95.9772 46.9656 96.1888 46.9921 96.3972C47.0186 96.6055 47.1137 96.7967 47.2601 96.9361C48.2099 97.8444 49.9761 100.014 49.1541 102.978C48.6785 104.858 47.9286 106.645 46.9324 108.272C46.8594 108.383 46.8109 108.51 46.7907 108.643C46.7705 108.777 46.7791 108.914 46.8158 109.043C47.1935 110.364 48.1543 114.529 46.688 118.491C44.9162 123.272 38.1902 142.162 38.6456 150.965C38.6567 150.965 38.1235 148.736 37.5737 141.75Z" fill="#319188"/>
<path d="M44.9723 84.5059C44.9723 84.5059 39.9736 98.5314 37.5908 139.712" stroke="#21295B" stroke-width="0.5" stroke-linecap="round" stroke-linejoin="round"/>
<path d="M38.8629 136.193C38.8629 136.193 37.7521 121.54 40.3792 117.07C42.6008 113.311 40.1959 108.219 39.4072 106.755C39.3379 106.631 39.2985 106.489 39.2927 106.344C39.2869 106.199 39.3148 106.055 39.3739 105.924C39.9293 104.729 41.2401 101.269 39.9793 98.5084C39.073 96.6106 37.6272 95.0739 35.8525 94.122C35.7084 94.0453 35.5878 93.9257 35.5051 93.7774C35.4224 93.6291 35.3811 93.4583 35.386 93.2854C35.4915 90.6918 35.3027 80.4251 25.7162 78.9431C25.5405 78.9181 25.362 78.9554 25.2077 79.0492C25.0534 79.1429 24.9317 79.2882 24.8609 79.463C23.9773 81.7129 23.5458 84.1384 23.5945 86.5804C23.5945 90.2854 25.5663 93.369 26.4938 94.63C26.6178 94.793 26.6833 94.9986 26.6782 95.2092C26.6731 95.4198 26.5978 95.6215 26.466 95.7773C25.6162 96.7813 24.1222 99.094 25.2663 101.95C25.948 103.79 26.8945 105.502 28.0712 107.024C28.1524 107.124 28.2116 107.243 28.2443 107.371C28.277 107.5 28.2824 107.634 28.26 107.765C28.0323 109.11 27.5435 113.353 29.4486 117.159C31.748 121.755 36.4302 139.043 36.9689 147.846C36.9689 147.894 39.1017 143.19 38.8629 136.193Z" fill="#4FAE86"/>
<path d="M29.9256 107.089C24.1326 97.3183 16.6567 95.4179 14.2684 95.0474C14.0497 95.0151 13.828 95.0775 13.652 95.2209C13.476 95.3643 13.3601 95.577 13.3298 95.8123C13.1798 97.1151 13.2909 99.6788 15.9402 101.717L18.7895 103.91C18.887 103.986 18.9679 104.084 19.0266 104.197C19.0853 104.31 19.1204 104.435 19.1294 104.564C19.1384 104.694 19.1211 104.823 19.0787 104.945C19.0363 105.066 18.9698 105.176 18.8839 105.266C17.912 106.348 16.7734 108.643 20.4336 111.696C23.766 114.493 25.6989 116.292 26.6264 117.212C26.7139 117.295 26.784 117.397 26.8319 117.512C26.8799 117.626 26.9047 117.75 26.9047 117.876C26.9047 118.001 26.8799 118.125 26.8319 118.239C26.784 118.354 26.7139 118.456 26.6264 118.539C25.5767 119.525 24.0493 121.652 26.6264 124.222C30.1922 127.808 36.2351 142.425 36.9238 148.807C36.8905 148.813 36.9127 118.868 29.9256 107.089Z" fill="#6CE08B"/>
<path d="M45.3332 99.0264C51.1262 89.2558 58.6076 87.3554 60.9903 86.9849C61.2091 86.9526 61.4308 87.015 61.6068 87.1584C61.7828 87.3018 61.8987 87.5145 61.929 87.7498C62.0845 89.0526 61.9734 91.6163 59.3185 93.66L56.4693 95.8472C56.3726 95.9238 56.2924 96.022 56.2343 96.1351C56.1761 96.2481 56.1414 96.3733 56.1324 96.5022C56.1234 96.631 56.1404 96.7604 56.1823 96.8815C56.2241 97.0026 56.2898 97.1125 56.3748 97.2038C57.3524 98.2854 58.491 100.58 54.8252 103.634C51.4928 106.431 49.5599 108.229 48.6324 109.15C48.5449 109.233 48.4748 109.335 48.4269 109.449C48.3789 109.563 48.3541 109.688 48.3541 109.813C48.3541 109.939 48.3789 110.063 48.4269 110.177C48.4748 110.291 48.5449 110.393 48.6324 110.476C49.6821 111.462 51.2095 113.59 48.6324 116.165C45.0721 119.751 39.0237 134.362 38.335 140.745C38.3683 140.745 38.3461 110.805 45.3332 99.0264Z" fill="#6CE08B"/>
<path d="M38.5516 139.712C42.0507 130.79 43.3282 123.475 48.0381 114.947C50.8152 109.904 54.0199 100.151 63.4342 94.3543C63.5637 94.2759 63.7101 94.2359 63.8586 94.2384C64.0071 94.2409 64.1523 94.2857 64.2794 94.3684C64.4065 94.4511 64.511 94.5685 64.582 94.7089C64.6531 94.8492 64.6882 95.0073 64.6839 95.167C64.6062 97.9697 64.1563 103.838 61.8402 106.372C60.6127 107.722 59.8573 108.517 59.3964 108.983C59.3159 109.066 59.2519 109.166 59.2081 109.277C59.1644 109.387 59.1418 109.506 59.1418 109.626C59.1418 109.746 59.1644 109.865 59.2081 109.975C59.2519 110.085 59.3159 110.185 59.3964 110.268C60.3739 111.32 61.618 113.663 58.0578 116.872C54.8031 119.794 52.848 121.455 51.8871 122.25C51.7995 122.322 51.7262 122.413 51.6716 122.516C51.617 122.62 51.5822 122.734 51.5693 122.852C51.5564 122.97 51.5655 123.09 51.5963 123.204C51.627 123.318 51.6787 123.425 51.7483 123.517C52.5592 124.605 53.6034 126.863 50.7819 129.075C44.9722 133.61 40.0568 140.985 36.8965 148.652L38.5516 139.712Z" fill="#4FAE86"/>
<path d="M37.591 146.553C39.4627 109.192 27.0381 82.9512 27.0381 82.9512" stroke="#21295B" stroke-width="0.5" stroke-linecap="round" stroke-linejoin="round"/>
<path d="M62.3564 97.7246C62.3564 97.7246 42.3615 124.545 37.957 145.861" stroke="#21295B" stroke-width="0.5" stroke-linecap="round" stroke-linejoin="round"/>
<path d="M44.0273 156.038H33.3078C32.1624 156.039 31.0558 155.592 30.1935 154.781C29.3313 153.97 28.7722 152.85 28.6201 151.628L26.2207 132.344H51.0866L48.6873 151.628C48.5358 152.844 47.9807 153.961 47.1243 154.771C46.2678 155.582 45.1679 156.032 44.0273 156.038V156.038Z" stroke="#21295B" stroke-width="0.5" stroke-linecap="round" stroke-linejoin="round"/>
<path d="M27.9209 145.896L28.6318 151.627C28.7839 152.849 29.343 153.969 30.2053 154.781C31.0675 155.592 32.1742 156.038 33.3195 156.038H44.0279C45.1724 156.037 46.2777 155.59 47.1387 154.779C47.9998 153.967 48.5581 152.848 48.7101 151.627L49.421 145.896H27.9209Z" fill="#4E5683"/>
<path d="M52.7531 127.725H24.6436V132.171H52.7531V127.725Z" stroke="#21295B" stroke-width="0.5" stroke-linecap="round" stroke-linejoin="round"/>
<path d="M175.289 52.2773H95.515C94.4782 52.2773 93.6377 53.1817 93.6377 54.2972V63.9902C93.6377 65.1057 94.4782 66.0101 95.515 66.0101H175.289C176.326 66.0101 177.167 65.1057 177.167 63.9902V54.2972C177.167 53.1817 176.326 52.2773 175.289 52.2773Z" stroke="#4E5683" stroke-miterlimit="10"/>
<path opacity="0.3" d="M193.396 75.7207C193.002 75.9951 192.573 76.2083 192.124 76.3542C187.942 77.7645 181.504 73.8264 177.233 66.9182C172.962 60.01 172.079 52.0918 174.912 48.4943C175.209 48.1025 175.557 47.7583 175.945 47.4724C179.977 44.5861 187.381 48.6198 192.113 56.275C196.845 63.9302 197.428 72.8403 193.396 75.7207Z" fill="white"/>
<path d="M203.11 85.6952C202.182 84.2431 201.483 84.5 200.938 84.3267C200.394 84.1534 199.3 85.0319 199.089 85.9044C198.878 86.7769 198.706 86.7948 198.8 87.4522C198.894 88.1095 200.566 88.0498 201.344 88.0019C202.419 88.073 203.488 88.2248 204.543 88.4561L206.831 85.7072L203.11 85.6952Z" fill="#FEC4AD"/>
<path d="M204.12 85.2886C203.448 83.9918 202.893 84.5057 202.06 84.8463C201.368 85.1584 200.699 85.528 200.06 85.9519C200.06 85.9519 199.871 86.7586 200.427 86.9618C200.982 87.165 202.549 86.4359 202.848 87.4817C203.148 88.5275 206.809 85.6889 206.809 85.6889L204.12 85.2886Z" fill="#FEC4AD"/>
<path d="M228.359 67.7665C225.909 67.4557 224.315 68.9617 223.005 75.6667C222.362 78.9052 221.266 82.0201 219.755 84.9055L204.704 85.1804L203.737 88.4193C203.737 88.4193 218.695 91.491 221.888 91.0308C226.293 90.3914 228.587 82.288 230.775 75.9774C232.313 71.5074 231.697 68.1908 228.359 67.7665Z" fill="#0F2E40"/>
<path d="M211.274 60.9238C211.686 62.1788 212.18 63.401 212.752 64.5811C213.307 65.4595 212.918 67.2045 212.718 67.9814C212.519 68.7583 214.101 68.579 214.101 68.579C214.914 69.3255 215.636 70.1788 216.251 71.1188C216.767 71.8777 218.112 70.9096 219.028 70.5869C219.944 70.2642 220.333 69.075 221.422 67.4316C222.51 65.7882 222.794 63.0692 222.794 63.0692L221.405 57.4697L215.334 56.9199L211.274 60.9238Z" fill="#FEC4AD"/>
<path d="M211.647 61.9101C209.858 62.3105 206.926 58.456 211.164 56.974C213.096 56.2928 217.151 53.0837 219.139 54.0338C221.128 54.984 221.361 56.6334 221.361 56.6334C221.361 56.6334 222.472 56.221 223.638 58.7011C224.805 61.1811 223.249 66.3861 223.472 67.7964L220.694 65.4061C220.694 65.4061 222 63.6671 221.389 62.1731C220.778 60.6791 218.612 60.703 218.762 62.2567C218.912 63.8105 218.106 64.1153 218.106 64.1153C218.106 64.1153 216.857 62.8364 217.112 61.8384C217.59 59.9799 214.696 58.1752 214.08 59.3584C213.463 60.5416 213.219 61.5635 211.647 61.9101Z" fill="#471A16"/>
<path d="M226.204 66.7451C226.032 66.7675 225.859 66.7675 225.687 66.7451C224.971 66.5539 220.522 64.9941 220.522 64.9941L219.678 70.3725C219.678 70.3725 225.704 75.0815 227.837 76.2349C227.198 73.1095 226.632 69.9303 226.204 66.7451Z" fill="#FEC4AD"/>
<path d="M225.238 66.0273L223.038 74.8239L225.015 76.2402L227.359 66.4337L225.238 66.0273Z" fill="#133A50"/>
<path d="M227.359 66.4339C227.359 66.4339 228.803 66.398 230.758 66.3681C234.013 66.3084 240.384 69.129 244.088 72.1708C249.992 77.0412 256.196 89.997 256.196 89.997C254.387 91.6999 252.301 93.027 250.042 93.9113C247.563 94.8495 244.994 95.4849 242.383 95.8056C242.383 95.8056 236.346 85.8557 231.575 84.7202C228.615 83.9609 225.933 82.2693 223.871 79.8618L227.359 66.4339Z" fill="#133A50"/>
<path d="M256.196 89.998C257.862 94.7071 257.529 100.665 256.196 104.938C254.364 110.733 252.907 116.657 251.836 122.669C251.153 126.792 255.035 138.547 259.262 148.281L254.669 150.971C254.669 150.971 242.244 130.981 242.244 125.071C242.244 119.161 242.389 95.7887 242.389 95.7887L256.196 89.998Z" fill="#0F2E40"/>
<path d="M259.234 148.275L261.734 153.367L255.896 157H253.353L256.468 152.71L255.269 150.289L259.234 148.275Z" fill="#0F2E40"/>
<path d="M255.764 90.6738C257.43 95.3888 256.874 101.275 255.764 105.614C254.653 109.952 244.189 122.478 243.589 125.932C242.367 133.025 237.518 150.063 237.518 150.063H232.27C232.27 150.063 235.047 130.982 235.047 125.071C235.047 119.161 241.928 96.4884 241.928 96.4884L255.764 90.6738Z" fill="#133A50"/>
<path d="M237.512 150.057L236.89 156.499L228.959 156.63L232.414 153.821L233.513 150.057H237.512Z" fill="#133A50"/>
<path d="M197.456 81.6376L195.562 83.3348L190.857 77.1796L192.751 75.4824L197.456 81.6376Z" fill="#133A50"/>
<path d="M208.725 96.4824L206.903 98.1138C206.738 98.2606 206.525 98.331 206.312 98.3098C206.099 98.2885 205.902 98.1772 205.765 98.0003L194.362 83.0604C194.233 82.8851 194.171 82.6628 194.191 82.44C194.211 82.2172 194.31 82.0113 194.467 81.8653L196.284 80.2338C196.366 80.1602 196.46 80.1048 196.562 80.0707C196.664 80.0365 196.771 80.0244 196.878 80.0349C196.984 80.0455 197.087 80.0785 197.182 80.1321C197.276 80.1857 197.36 80.2589 197.428 80.3474L208.83 95.2872C208.957 95.4637 209.017 95.6853 208.997 95.9072C208.977 96.1292 208.88 96.3348 208.725 96.4824V96.4824Z" fill="#FF3A46"/>
<path d="M193.174 55.5171C187.703 46.6667 179.149 42.4357 174.062 46.0751C168.974 49.7144 169.285 59.8197 174.756 68.688C180.227 77.5563 188.78 81.7694 193.868 78.136C198.955 74.5026 198.644 64.3734 193.174 55.5171ZM193.396 75.7217C193.001 75.9961 192.573 76.2093 192.124 76.3552C187.942 77.7655 181.504 73.8273 177.233 66.9192C172.962 60.011 172.079 52.0928 174.911 48.4953C175.209 48.1035 175.557 47.7593 175.945 47.4734C179.977 44.5871 187.381 48.6208 192.113 56.276C196.845 63.9312 197.428 72.8413 193.396 75.7217V75.7217Z" fill="#FF3A46"/>
<path d="M192.112 56.275C187.38 48.6198 179.977 44.5861 175.944 47.4724C175.556 47.7583 175.208 48.1025 174.911 48.4943C179.093 47.078 185.531 51.0162 189.802 57.9303C194.073 64.8445 194.951 72.7507 192.123 76.3542C192.573 76.2083 193.001 75.9951 193.395 75.7207C197.428 72.8403 196.839 63.9541 192.112 56.275Z" fill="#133A50"/>
<path d="M174.756 68.6872C169.285 59.8368 168.974 49.7076 174.062 46.0742L171.513 47.867C166.431 51.5064 166.742 61.6117 172.207 70.4859C177.672 79.3602 186.237 83.5673 191.319 79.9279L193.868 78.1352C188.78 81.7685 180.222 77.5435 174.756 68.6872Z" fill="#133A50"/>
<path d="M207.009 90.0524C207.009 90.0524 202.91 89.2098 202.01 89.4548C201.11 89.6998 198.566 91.403 198.566 91.403L198.944 91.642L199.844 91.5763L199.166 92.1082L199.722 92.5922L200.372 92.395L201.232 92.3532L200.122 92.897L200.677 93.2496L201.949 93.0882L201.127 93.5125L201.46 93.9726L204.454 92.8432L206.342 92.0066L208.564 92.4727L207.009 90.0524Z" fill="#FEC4AD"/>
<path d="M227.948 68.442C225.609 67.6054 223.899 69.5476 223.982 76.3841C224.02 80.0469 223.774 83.7068 223.249 87.326L207.008 90.051L206.647 93.4334C206.647 93.4334 222.86 93.5231 226.059 93.9175C229.258 94.3119 229.98 83.6508 230.503 78.9179C231.025 74.1849 231.141 69.5775 227.948 68.442Z" fill="#133A50"/>
<path d="M126.091 73.4688H97.7588V75.4767H126.091V73.4688Z" fill="#C9CDD8"/>
<path d="M95.5036 73.4688H93.6152V75.4767H95.5036V73.4688Z" fill="#4FAE86"/>
<path d="M95.5036 77.7227H93.6152V79.7306H95.5036V77.7227Z" fill="#4FAE86"/>
<path d="M95.5036 81.9844H93.6152V83.9923H95.5036V81.9844Z" fill="#4FAE86"/>
<path d="M121.731 77.7227H97.7588V79.7306H121.731V77.7227Z" fill="#C9CDD8"/>
<path d="M132.939 81.9844H97.7588V83.9923H132.939V81.9844Z" fill="#C9CDD8"/>
<path d="M129.823 86.2383H97.7588V88.2462H129.823V86.2383Z" fill="#C9CDD8"/>
<path d="M124.674 95.2441H111.161V96.2481H124.674V95.2441Z" fill="#4FAE86"/>
<path d="M147.963 41.3301H125.496V46.1825H147.963V41.3301Z" fill="#FF3A46"/>
<path d="M160.576 94.2461H151.545V96.254H160.576V94.2461Z" fill="#4FAE86"/>
<path d="M187.658 94.2461H165.241V96.254H187.658V94.2461Z" fill="#4FAE86"/>
<path d="M0 156.355H308" stroke="#4E5683" stroke-miterlimit="10"/>
</g>
<defs>
<linearGradient id="paint0_linear_739_1273" x1="142.087" y1="137.607" x2="142.087" y2="156.151" gradientUnits="userSpaceOnUse">
<stop stop-color="#EEF4FB"/>
<stop offset="0.31" stop-color="#E3EDF8"/>
<stop offset="1" stop-color="#CFE1F3"/>
</linearGradient>
<linearGradient id="paint1_linear_739_1273" x1="135.388" y1="117.822" x2="135.388" y2="140.095" gradientUnits="userSpaceOnUse">
<stop stop-color="#EEF4FB"/>
<stop offset="0.31" stop-color="#E3EDF8"/>
<stop offset="1" stop-color="#CFE1F3"/>
</linearGradient>
<clipPath id="clip0_739_1273">
<rect width="308" height="157" fill="white"/>
</clipPath>
</defs>
</svg>
